<?xml version="1.0" encoding="utf-8"?>
<!-- Generator: Adobe Illustrator 28.1.0, SVG Export Plug-In . SVG Version: 6.00 Build 0)  -->
<svg version="1.1" id="Layer_1" xmlns="http://www.w3.org/2000/svg" xmlns:xlink="http://www.w3.org/1999/xlink" x="0px" y="0px"
	 viewBox="0 0 80 80" style="enable-background:new 0 0 80 80;" xml:space="preserve">
<style type="text/css">
	.st0{fill:#F5E663;}
</style>
<g id="Group_15098">
	<path id="Path_49367" class="st0" d="M66.4,46.8h-2.3V18.2c0-0.9-0.8-1.7-1.7-1.7H18.7c-0.9,0-1.7,0.8-1.7,1.7v28.6h-2.3V18.2
		c0-2.2,1.8-3.9,3.9-3.9h43.8c2.2,0,3.9,1.8,3.9,3.9L66.4,46.8L66.4,46.8z"/>
	<path id="Path_49368" class="st0" d="M75.9,63.5H5.3c-0.6,0-1.1-0.5-1.1-1.1c0-0.3,0.1-0.5,0.3-0.7L15,48.9
		c0.2-0.3,0.5-0.4,0.9-0.4h49.4c0.3,0,0.7,0.2,0.9,0.4l10.6,12.8c0.4,0.5,0.3,1.2-0.2,1.6C76.4,63.4,76.1,63.5,75.9,63.5 M7.7,61.3
		h65.8l-8.7-10.5H16.4L7.7,61.3z"/>
</g>
</svg>
