<?xml version="1.0" encoding="UTF-8"?><svg id="Layer_1" xmlns="http://www.w3.org/2000/svg" viewBox="0 0 80 80"><defs><style>.cls-1{fill:#f5e663;stroke-width:0px;}</style></defs><path class="cls-1" d="M28.68,61c-5.62,0-10.23-4.54-10.3-10.18-.07-5.63,4.45-10.31,10.08-10.44.14,0,.27,0,.4,0,.26-1.23.58-2.45.95-3.65,2.73-7.16,10.72-10.73,17.83-8.02,1.77.68,3.36,1.69,4.72,3.02.25.2.48.44.67.71l.07.11c.32.62.49.79,1.8.39,6.05-1.83,12.45,1.61,14.28,7.65.31,1.03.47,2.1.49,3.17,0,.04,0,.07,0,.11,3.8.98,6.09,3.35,6.82,7.08.38,2.31-.17,4.6-1.52,6.47-1.35,1.87-3.35,3.11-5.63,3.48-.19.03-.38.06-.58.07-.36.03-.7.03-1.04.03H28.81s-.09,0-.13,0ZM28.87,42.17c-.13,0-.25,0-.38,0-4.64.11-8.38,3.97-8.32,8.63.06,4.66,3.87,8.41,8.52,8.41.04,0,.07,0,.11,0h38.92c.3,0,.59,0,.89-.03.13-.01.29-.03.44-.06,3.73-.61,6.28-4.14,5.67-7.87-.63-3.19-2.63-5.09-6.13-5.8l-.72-.14v-.98c0-.19,0-.36,0-.54-.01-.92-.15-1.82-.41-2.69-1.54-5.1-6.94-8-12.04-6.46-.96.3-2.75.85-3.87-1.2-.1-.13-.21-.24-.33-.33l-.08-.07c-1.19-1.17-2.58-2.07-4.14-2.66-6.18-2.36-13.13.75-15.5,6.93-.41,1.31-.76,2.72-1.03,4.13l-.14.73h-1.07c-.12,0-.26,0-.39,0Z"/><path class="cls-1" d="M20.22,58.49l-1.61-.08c-1.07-.08-2.16-.06-3.21-.04-2.11.04-4.3.09-6.45-.72-2.68-1.02-4.8-3.02-5.98-5.63-1.17-2.61-1.26-5.53-.24-8.2,1.4-3.68,4.65-6.27,8.54-6.81-.65-4.83.91-8.72,4.66-11.57,3.73-2.83,7.91-3.27,12.44-1.32,2.18-3.74,5.76-6.51,9.95-7.66,3.31-.94,6.77-.8,9.99.41,6.65,2.38,10.39,8.64,10.65,13.58l.04.79-.78.14c-.3.05-.6.11-.9.17-.83.16-1.69.32-2.55.41h-.1s-.1,0-.1,0c-.58-.07-1.1-.35-1.48-.8-5.7-5.67-15.04-5.64-20.77.12-1.86,1.87-3.19,4.22-3.83,6.78-.12.87-.85,1.55-1.72,1.62-6.05,1.06-10.12,6.83-9.08,12.89.22,1.26.64,2.46,1.27,3.58.13.23.27.48.5.91l.78,1.45ZM23.01,24.71c-2.12,0-4.11.72-6,2.15-3.4,2.58-4.69,6.19-3.84,10.72l.17.9-1.16.19c-.18.03-.33.06-.48.07-3.31.39-6.11,2.57-7.3,5.7-.85,2.23-.77,4.66.2,6.83.98,2.18,2.75,3.84,4.98,4.69,1.83.69,3.75.65,5.78.6.58-.01,1.17-.02,1.77-.02-.6-1.17-1.01-2.42-1.24-3.72-1.2-7.05,3.55-13.76,10.59-14.97h.11s.09-.05.09-.1l.02-.12c.72-2.9,2.21-5.54,4.32-7.66,6.42-6.46,16.9-6.49,23.35-.07.11.12.2.19.3.22.76-.09,1.5-.23,2.29-.38.04,0,.07-.01.11-.02-.56-4.13-3.89-9.23-9.4-11.21-2.88-1.07-5.95-1.2-8.9-.37-3.99,1.1-7.36,3.83-9.25,7.51l-.4.78-.79-.38c-1.88-.91-3.65-1.37-5.34-1.37Z"/></svg>