<?xml version="1.0" encoding="utf-8"?>
<!-- Generator: Adobe Illustrator 28.1.0, SVG Export Plug-In . SVG Version: 6.00 Build 0)  -->
<svg version="1.1" id="Layer_1" xmlns="http://www.w3.org/2000/svg" xmlns:xlink="http://www.w3.org/1999/xlink" x="0px" y="0px"
	 viewBox="0 0 95 95" style="enable-background:new 0 0 95 95;" xml:space="preserve">
<style type="text/css">
	.st0{fill:#47A8BD;}
	.st1{fill:#FFFFFF;}
</style>
<g>
	<g>
		<g id="Group_15021">
			<path id="Path_49334" class="st0" d="M47.6,59.6c-7.2,0-13-5.9-13-13c0-7.2,5.9-13,13-13s13,5.9,13,13
				C60.6,53.8,54.8,59.6,47.6,59.6L47.6,59.6L47.6,59.6z M47.7,35.7c-6,0-10.9,4.9-10.9,10.9s4.9,10.9,10.9,10.9s10.9-4.9,10.9-10.9
				C58.6,40.6,53.7,35.7,47.7,35.7l0-0.1C47.7,35.6,47.7,35.7,47.7,35.7z"/>
			<path id="Path_49335" class="st1" d="M45.9,75c-2.4,0-4.3-1.9-4.3-4.3v-2.8c-1.8-0.4-3.5-1.1-5.1-2.1l-1.8,1.9
				c-1.7,1.7-4.4,1.7-6.1,0l-2.3-2.3c-1.7-1.7-1.7-4.4,0-6.1l2-2c-1-1.6-1.7-3.3-2.1-5l-2.7,0.1c-2.4,0-4.3-1.9-4.3-4.3v-3.2
				c0-2.4,2-4.3,4.3-4.3h2.8c0.4-1.8,1.1-3.5,2-5.1l-2-1.8c-1.7-1.7-1.7-4.4,0-6.1l2.3-2.3c1.7-1.7,4.4-1.7,6.1,0l2,2
				c1.6-1,3.3-1.7,5-2.1l-0.1-2.7c0-2.4,1.9-4.3,4.3-4.3h3.2c2.4,0,4.3,2,4.3,4.3v2.8c1.8,0.4,3.5,1.1,5.1,2l1.8-2
				c1.7-1.7,4.4-1.7,6.1,0l2.3,2.3c1.7,1.7,1.7,4.4,0,6.1l-2,2c1,1.6,1.7,3.3,2.1,5l2.7-0.1c2.4,0,4.3,1.9,4.3,4.3v3.2
				c0,2.4-1.9,4.3-4.3,4.3h-2.8c-0.4,1.8-1.1,3.5-2.1,5.1l1.9,1.8c1.7,1.7,1.7,4.4,0,6.1l-2.3,2.3c-1.7,1.7-4.4,1.7-6.1,0l-2-2
				c-1.6,1-3.3,1.7-5,2.1l0.1,2.7c0,2.4-1.9,4.3-4.3,4.3L45.9,75L45.9,75z M36.5,63.6c0.2,0,0.4,0,0.5,0.2c1.8,1.1,3.8,2,5.9,2.5
				c0.5,0.1,0.8,0.5,0.8,1v3.5c0,1.3,1,2.3,2.2,2.3h3.2c1.3,0,2.3-1,2.3-2.2l0-3.5c0-0.5,0.3-0.9,0.8-1c2.1-0.5,4.1-1.3,5.9-2.4
				c0.2-0.1,0.3-0.2,0.5-0.2c0.3,0,0.6,0.1,0.8,0.3l2.4,2.4c0.9,0.9,2.3,0.9,3.2,0l0,0l2.3-2.3c0.9-0.9,0.9-2.3,0-3.2l-2.4-2.4
				c-0.4-0.3-0.4-0.9-0.2-1.3c1.1-1.8,2-3.8,2.5-5.9c0.1-0.5,0.5-0.8,1-0.8h3.5c1.2,0,2.3-1,2.3-2.2v-3.2c0-1.3-1-2.3-2.2-2.3l0,0
				h-3.5c-0.5,0-0.9-0.3-1-0.8C66.8,40,66,38,64.9,36.2c-0.2-0.4-0.2-0.9,0.2-1.2l2.5-2.5c0.9-0.9,0.9-2.3,0-3.2L65.2,27
				c-0.9-0.9-2.3-0.9-3.2,0l-2.5,2.5c-0.3,0.3-0.8,0.4-1.2,0.1c-1.8-1.1-3.8-2-5.9-2.5c-0.5-0.1-0.8-0.5-0.8-1l0-3.5
				c0-1.3-1-2.3-2.3-2.3l0,0h-3.2c-1.3,0-2.3,1-2.3,2.2V26c0,0.5-0.3,0.9-0.8,1c-2.1,0.5-4.1,1.3-5.9,2.4c-0.2,0.1-0.3,0.1-0.5,0.1
				c-0.3,0-0.5-0.1-0.7-0.3l-2.5-2.5c-0.9-0.9-2.3-0.9-3.2,0l0,0L28,29.1c-0.9,0.9-0.9,2.3,0,3.2l2.5,2.5c0.3,0.3,0.4,0.8,0.1,1.2
				c-1.1,1.8-2,3.8-2.5,5.9c-0.1,0.5-0.5,0.8-1,0.8h-3.5c-1.3,0-2.3,1-2.3,2.2v3.2c0,1.3,1,2.3,2.2,2.3h3.5c0.5,0,0.9,0.3,1,0.8
				c0.5,2.1,1.3,4.1,2.4,5.9c0.3,0.4,0.2,1-0.2,1.3l-2.4,2.4c-0.9,0.9-0.9,2.3,0,3.2l2.3,2.3c0.4,0.4,1,0.7,1.6,0.7
				c0.6,0,1.2-0.2,1.6-0.7l2.4-2.4C35.9,63.7,36.2,63.6,36.5,63.6"/>
		</g>
	</g>
</g>
</svg>
