<?xml version="1.0" encoding="utf-8"?>
<!-- Generator: Adobe Illustrator 28.1.0, SVG Export Plug-In . SVG Version: 6.00 Build 0)  -->
<svg version="1.1" id="Layer_1" xmlns="http://www.w3.org/2000/svg" xmlns:xlink="http://www.w3.org/1999/xlink" x="0px" y="0px"
	 viewBox="0 0 138.7 32" style="enable-background:new 0 0 138.7 32;" xml:space="preserve">
<style type="text/css">
	.st0{fill:#F5E663;}
</style>
<path id="Path_49172" class="st0" d="M8.1,22V9.6c0-0.2,0.1-0.5,0.3-0.7C8.5,8.8,8.7,8.7,9,8.7h7.4c3.9,0,5.8,1.9,5.8,5.5
	c0,3.7-2,5.5-5.8,5.5h-4.6V22c0,0.2-0.1,0.5-0.3,0.7c-0.2,0.2-0.4,0.3-0.6,0.3H9c-0.2,0-0.5-0.1-0.7-0.3C8.2,22.5,8.1,22.3,8.1,22
	 M11.7,17h3.5c0.9,0,1.7-0.1,2.5-0.6c0.6-0.5,1-1.4,0.8-2.2c0.1-0.8-0.2-1.6-0.8-2.2c-0.8-0.4-1.6-0.6-2.5-0.6h-3.5V17L11.7,17z
	 M24.7,21.7c-1-1.1-1.6-2.6-1.5-4.2c-0.1-1.5,0.4-3.1,1.5-4.2c1.1-1,2.6-1.6,4.2-1.5c1.5-0.1,3,0.4,4.2,1.4c1,1.1,1.6,2.6,1.5,4.1
	v0.6c0,0.2-0.1,0.3-0.2,0.5c-0.1,0.1-0.3,0.2-0.4,0.2h-7.3c0,0.7,0.2,1.3,0.7,1.8c0.5,0.4,1.2,0.6,1.9,0.6c0.7,0.1,1.3-0.1,1.8-0.6
	c0.3-0.4,0.7-0.6,1.2-0.6h1.4c0.2,0,0.3,0.1,0.4,0.2c0.1,0.1,0.2,0.3,0.2,0.4c0,1.9-1.8,2.9-5.3,2.8C27.4,23.2,25.9,22.7,24.7,21.7
	 M26.6,16.4h4.5c-0.1-1.6-0.8-2.4-2.2-2.4S26.7,14.9,26.6,16.4 M43.6,14.6l-1.5-0.1c-1,0.1-1.9,0.6-2.5,1.5v6.4
	c0,0.2-0.1,0.3-0.2,0.4c-0.1,0.1-0.3,0.2-0.4,0.2h-2.2c-0.2,0-0.3-0.1-0.4-0.2c-0.1-0.1-0.2-0.3-0.2-0.4v-9.7c0-0.2,0-0.3,0.2-0.4
	c0.1-0.1,0.3-0.2,0.4-0.2H39c0.2,0,0.3,0.1,0.4,0.2s0.2,0.3,0.2,0.4v0.6c0.6-0.5,1.2-0.8,1.9-1.1c0.8-0.3,1.6-0.4,2.4-0.4
	c0.2,0,0.3,0.1,0.4,0.2c0.1,0.1,0.2,0.3,0.2,0.4V14c0,0.2-0.1,0.3-0.2,0.4c-0.1,0.1-0.3,0.2-0.4,0.2L43.6,14.6L43.6,14.6z M51,20.8
	l1.3-0.1h0.4c0.2,0,0.3,0.1,0.4,0.2c0.1,0.1,0.2,0.3,0.2,0.4v1.1c0,0.1-0.1,0.3-0.2,0.4c-0.1,0.1-0.3,0.2-0.4,0.2
	c-0.8,0.1-1.7,0.2-2.6,0.2c-2.8,0-4.2-1.5-4.2-4.5V9.3c0-0.2,0.1-0.3,0.2-0.4s0.3-0.2,0.4-0.2h2.2c0.2,0,0.3,0.1,0.4,0.2
	c0.1,0.1,0.2,0.3,0.2,0.4v3.3H52c0.2,0,0.3,0.1,0.4,0.2c0.1,0.1,0.2,0.3,0.2,0.4v1.2c0,0.2-0.1,0.3-0.2,0.4C52.3,15,52.1,15,52,15
	h-2.7v3.6c0,0.6,0.1,1.1,0.5,1.6C50,20.6,50.5,20.8,51,20.8 M55.6,21.7c-1-1.1-1.6-2.6-1.5-4.2c-0.1-1.5,0.4-3.1,1.5-4.2
	c1.1-1,2.6-1.6,4.2-1.5c1.5-0.1,3,0.4,4.2,1.4c1,1.1,1.6,2.6,1.5,4.1v0.6c0,0.2-0.1,0.3-0.2,0.5c-0.1,0.1-0.3,0.2-0.4,0.2h-7.3
	c0,0.7,0.2,1.3,0.7,1.8c0.5,0.4,1.2,0.6,1.9,0.6c0.7,0.1,1.3-0.1,1.8-0.6c0.3-0.4,0.7-0.6,1.2-0.6h1.4c0.2,0,0.3,0.1,0.4,0.2
	c0.1,0.1,0.2,0.3,0.2,0.4c0,1.9-1.8,2.9-5.3,2.8C58.3,23.2,56.8,22.7,55.6,21.7 M57.5,16.4H62c-0.1-1.6-0.8-2.4-2.2-2.4
	S57.6,14.9,57.5,16.4 M67.2,22.3v-9.7c0-0.2,0-0.3,0.2-0.4c0.1-0.1,0.3-0.2,0.4-0.2H70c0.2,0,0.3,0.1,0.4,0.2s0.2,0.3,0.2,0.4v0.6
	c0.4-0.4,0.9-0.8,1.4-1.1c0.5-0.3,1.1-0.4,1.6-0.4c1.4,0,2.7,0.7,3.4,1.9c0.9-1.1,2.2-1.8,3.7-1.9c1.1-0.1,2.2,0.4,3,1.2
	c0.8,1,1.2,2.3,1.1,3.6v5.7c0,0.2,0,0.3-0.2,0.4c-0.1,0.1-0.3,0.2-0.4,0.2H82c-0.2,0-0.3-0.1-0.4-0.2c-0.1-0.1-0.2-0.3-0.2-0.4v-5.7
	c0-1.6-0.6-2.4-1.7-2.4c-0.7,0-1.4,0.5-2.1,1.5c0,0.3,0.1,0.6,0.1,0.9v5.7c0,0.2-0.1,0.3-0.2,0.4c-0.1,0.1-0.3,0.2-0.4,0.2h-2.2
	c-0.2,0-0.3-0.1-0.4-0.2c-0.1-0.1-0.2-0.3-0.2-0.4v-5.7c0-1.6-0.6-2.4-1.7-2.4c-0.9,0.1-1.7,0.6-2.1,1.4v6.7c0,0.2-0.1,0.3-0.2,0.4
	c-0.1,0.1-0.3,0.2-0.4,0.2h-2.2c-0.2,0-0.3-0.1-0.4-0.2C67.3,22.6,67.2,22.5,67.2,22.3 M87.1,25.7v-13c0-0.2,0-0.3,0.2-0.4
	s0.3-0.2,0.4-0.2h1.9c0.2,0,0.3,0.1,0.4,0.2c0.1,0.1,0.2,0.3,0.2,0.4V13c1-0.8,2.3-1.1,3.5-1.1c1.3,0,2.5,0.5,3.4,1.5
	c1,1.2,1.5,2.7,1.3,4.2c0.1,1.5-0.4,3-1.4,4.2c-1,1-2.4,1.5-3.8,1.5c-1,0-1.9-0.2-2.8-0.5v3c0,0.2-0.1,0.3-0.2,0.4s-0.3,0.2-0.4,0.2
	h-2.2c-0.2,0-0.3-0.1-0.4-0.2S87.1,25.9,87.1,25.7 M90.5,20.3c0.7,0.2,1.4,0.4,2.1,0.4c0.7,0.1,1.4-0.2,1.9-0.8
	c0.4-0.8,0.6-1.6,0.6-2.5c0.1-0.9-0.1-1.7-0.5-2.5c-0.3-0.5-1-0.8-1.6-0.8c-0.9,0.1-1.7,0.4-2.4,0.9L90.5,20.3L90.5,20.3z
	 M99.6,15.1c0-2.1,1.7-3.2,5-3.2c3.5,0,5.3,1,5.3,2.9c0,0.2-0.1,0.3-0.2,0.4c-0.1,0.1-0.3,0.2-0.4,0.2h-1.4c-0.5,0-0.9-0.2-1.2-0.6
	c-0.5-0.5-1.2-0.7-1.9-0.6c-1.3,0-1.9,0.3-1.9,1c0,0.3,0.2,0.5,0.7,0.8c0.6,0.2,1.2,0.4,1.8,0.5c0.7,0.1,1.5,0.3,2.2,0.6
	c0.7,0.2,1.3,0.6,1.8,1.1c0.5,0.5,0.8,1.2,0.8,1.9c0,2.1-1.8,3.2-5.3,3.2s-5.3-1-5.3-2.9c0-0.2,0-0.3,0.2-0.4s0.3-0.2,0.4-0.2h1.4
	c0.5,0,0.9,0.2,1.2,0.6c0.5,0.5,1.2,0.7,1.9,0.6c1.5,0,2.2-0.3,2.2-1c0-0.3-0.2-0.5-0.8-0.8c-0.6-0.2-1.2-0.4-1.8-0.5
	c-0.7-0.2-1.4-0.4-2.2-0.6c-0.7-0.2-1.3-0.6-1.8-1.1C99.9,16.5,99.6,15.8,99.6,15.1"/>
<g id="Group_14793">
	<path id="Path_49173" class="st0" d="M124.7,5.6c1.9,0,3.4,1.6,3.4,3.5v13.9c0,1.9-1.5,3.4-3.4,3.5l0,0h-8.5v-0.1
		c-0.1-0.4,0-0.5,0.2-0.5c0.8-0.2,1.5-0.5,2.2-0.8c0.3-0.1,0.5-0.3,0.7-0.5c0.4-0.4,0.6-1,0.3-1.6c-0.1-0.2-0.2-0.5-0.3-0.7
		c-0.3-0.5-0.2-1.1,0.2-1.5c0,0,0.1-0.1,0.1-0.1c0.2-0.2,0.2-0.4-0.1-0.5c0,0-0.1-0.1-0.2-0.1c-0.1-0.1-0.1-0.2,0-0.3
		c0.1-0.1,0.2-0.1,0.2-0.2c0.2-0.1,0.3-0.4,0.2-0.6c0,0,0,0,0-0.1c-0.1-0.1-0.2-0.2-0.2-0.4c-0.2-0.3-0.1-0.7,0.2-0.9
		c0.2-0.2,0.5-0.3,0.8-0.5c0.2-0.1,0.4-0.2,0.6-0.4c0.3-0.2,0.4-0.6,0.2-0.8c0,0,0-0.1-0.1-0.1c-0.5-0.7-1-1.3-1.5-2
		c-0.3-0.4-0.6-0.7-0.8-1.1c-0.2-0.3-0.2-0.8,0.1-1c0,0,0,0,0,0c0.2-0.2,0.4-0.4,0.6-0.6c0.2-0.1,0.2-0.4,0.2-0.6
		c-0.1-1-0.3-2-0.7-2.9c-0.2-0.7-0.4-1.3-0.7-2c0,0,0-0.1,0-0.1L124.7,5.6L124.7,5.6z M122.4,23.2c1.1-0.7,2.1-1.6,2.8-2.7
		c0.1-0.1,0.1-0.2,0.1-0.3c0-0.4,0-0.8-0.2-1.1c-0.1-0.2-0.1-0.5,0.1-0.7c0.2-0.2,0.2-0.2-0.1-0.3c-0.2-0.1-0.1-0.2,0-0.3
		s0.3-0.2,0.4-0.3c0.2-0.2,0.2-0.3,0-0.6c-0.2-0.2-0.2-0.4,0-0.5c0.1-0.1,0.2-0.2,0.3-0.3c0.2-0.1,0.3-0.4,0.1-0.6
		c0,0-0.1-0.1-0.1-0.1c-0.5-0.4-0.8-0.9-1-1.5c-0.2-0.4-0.1-0.9,0-1.3c0-0.1,0.1-0.2,0.2-0.1c0.2,0.2,0.2,0.2,0.3-0.1
		c0.1-0.6,0-1.1-0.3-1.6c-0.5-0.7-1.1-1.4-1.8-1.9c-0.5-0.4-1-0.8-1.6-1c0,0.1,0.1,0.2,0.1,0.2c0.2,0.7,0.5,1.5,0.7,2.2
		c0.2,0.4,0,0.9-0.4,1.1c-0.4,0.2-0.5,0.6-0.4,1c0.1,0.6,0.4,1.1,0.8,1.6c0.3,0.5,0.7,1,1.1,1.4c0.2,0.3,0.2,0.7-0.1,0.9
		c-0.2,0.2-0.4,0.4-0.7,0.5c-0.4,0.2-0.5,0.6-0.3,1c0.2,0.5,0.1,0.6-0.2,0.9c-0.1,0.1-0.2,0.1-0.2,0.3s0.1,0.1,0.2,0.2
		c0.2,0,0.2,0.2,0.1,0.4c-0.2,0.3-0.2,0.7-0.1,1c0,0.2,0.1,0.4,0.1,0.6C122.7,22,122.6,22.7,122.4,23.2"/>
</g>
</svg>
