<?xml version="1.0" encoding="utf-8"?>
<!-- Generator: Adobe Illustrator 28.1.0, SVG Export Plug-In . SVG Version: 6.00 Build 0)  -->
<svg version="1.1" id="Layer_1" xmlns="http://www.w3.org/2000/svg" xmlns:xlink="http://www.w3.org/1999/xlink" x="0px" y="0px"
	 viewBox="0 0 110 110" style="enable-background:new 0 0 110 110;" xml:space="preserve">
<style type="text/css">
	.st0{fill:#47A8BD;}
	.st1{fill:#FFFFFF;}
</style>
<g>
	<g>
		<g id="Group_14959">
			<path id="Path_49285" class="st0" d="M46.9,65.2c-1.1,0-2-0.9-2-2c0-0.5,0.2-1,0.6-1.4l45.8-45.8c0.8-0.8,2.1-0.7,2.8,0.1
				c0.7,0.8,0.7,2,0,2.7L48.3,64.6C48,65,47.5,65.2,46.9,65.2"/>
			<path id="Path_49286" class="st1" d="M46.9,110C21.1,110,0.1,89,0.1,63.2s21-46.8,46.8-46.8c9.4,0,18.7,2.9,26.4,8.2
				c0.9,0.6,1.1,1.9,0.5,2.8s-1.9,1.1-2.8,0.5C51.6,14.5,24.9,19.5,11.6,39C-1.8,58.6,3.2,85.2,22.8,98.6s46.2,8.3,59.5-11.2
				c10-14.6,10-33.8,0-48.4c-0.6-0.9-0.3-2.2,0.6-2.8c0.9-0.6,2.1-0.3,2.7,0.5c14.6,21.3,9.1,50.5-12.2,65.1
				C65.6,107.2,56.4,110,46.9,110"/>
			<path id="Path_49287" class="st1" d="M46.9,93c-16.5,0-29.8-13.4-29.8-29.8s13.4-29.8,29.8-29.8c4.8,0,9.6,1.2,13.9,3.4
				c1,0.5,1.3,1.8,0.8,2.7c-0.5,0.9-1.7,1.3-2.6,0.8C46.3,33.7,30.7,38.5,24,51.2s-1.8,28.3,10.9,34.9s28.3,1.8,34.9-10.9
				c4-7.5,4-16.5,0-24.1c-0.5-1-0.1-2.2,0.9-2.7c0.9-0.5,2.1-0.1,2.6,0.8c7.7,14.6,2.1,32.6-12.5,40.3C56.6,91.9,51.8,93,46.9,93"/>
			<path id="Path_49288" class="st1" d="M46.9,76.1c-7.1,0-12.9-5.8-12.9-12.8c0-6.7,5.1-12.2,11.7-12.8c1.1-0.1,2,0.8,2.1,1.8
				c0.1,1.1-0.7,2-1.8,2.1c-4.9,0.5-8.5,4.8-8,9.6s4.8,8.5,9.6,8c4.3-0.4,7.7-3.8,8-8.1c0.1-1.1,1-1.9,2.2-1.8s1.9,1,1.8,2.1l0,0
				C59.2,70.9,53.7,76.1,46.9,76.1"/>
			<path id="Path_49289" class="st0" d="M92.8,19.3c-1.1,0-2-0.9-2-2l0,0V2c0-1.1,0.9-2,2-2s2,0.9,2,2v15.3
				C94.8,18.4,93.9,19.3,92.8,19.3L92.8,19.3"/>
			<path id="Path_49290" class="st0" d="M83.5,28.6c-1.1,0-2-0.9-2-2l0,0V11.3c0-1.1,0.9-2,2-2s2,0.9,2,2v15.3
				C85.5,27.7,84.6,28.6,83.5,28.6L83.5,28.6"/>
			<path id="Path_49291" class="st0" d="M108.1,19.3H92.8c-1.1,0-2-0.9-2-2s0.9-2,2-2h15.3c1.1,0,2,0.9,2,2S109.2,19.3,108.1,19.3"
				/>
			<path id="Path_49292" class="st0" d="M98.8,28.6H83.5c-1.1,0-2-0.9-2-2s0.9-2,2-2h15.3c1.1,0,2,0.9,2,2S99.9,28.6,98.8,28.6
				L98.8,28.6"/>
		</g>
	</g>
</g>
</svg>
