<?xml version="1.0" encoding="utf-8"?>
<!-- Generator: Adobe Illustrator 28.1.0, SVG Export Plug-In . SVG Version: 6.00 Build 0)  -->
<svg version="1.1" id="Layer_1" xmlns="http://www.w3.org/2000/svg" xmlns:xlink="http://www.w3.org/1999/xlink" x="0px" y="0px"
	 viewBox="0 0 110 110" style="enable-background:new 0 0 110 110;" xml:space="preserve">
<style type="text/css">
	.st0{fill:#FFFFFF;}
	.st1{fill:#47A8BD;}
</style>
<g>
	<g>
		<g id="Group_14892">
			<path id="Path_49262" class="st0" d="M50.2,73.4c-0.8,0-1.5-0.7-1.5-1.6c0-0.8,0.6-1.4,1.3-1.5c0.2,0,15.5-1.8,23.5-2.5
				c2.3-0.2,4-2.1,4-4.4c0-1.3-0.5-1.7-0.9-2c-1-0.5-2.2-0.7-3.3-0.6h0L57,61.5c-0.2,0-0.5,0-0.7-0.1c-12.3-5.7-25-4.8-34,2.4
				c-0.7,0.5-1.6,0.4-2.1-0.2c-0.5-0.7-0.4-1.6,0.2-2.1l0,0c9.8-7.8,23.5-8.9,36.8-2.9l16-0.6c1.7-0.1,3.4,0.2,4.9,1
				c1.6,0.9,2.6,2.7,2.4,4.5c0.1,3.9-2.9,7.2-6.8,7.6c-7.9,0.7-23.2,2.5-23.3,2.5C50.3,73.4,50.3,73.4,50.2,73.4"/>
			<path id="Path_49263" class="st0" d="M28.8,90.8c-0.8,0-1.5-0.7-1.5-1.5c0-0.8,0.6-1.4,1.4-1.5L71.2,83c3.7-0.6,5.3-1.8,8.1-3.9
				l26.9-26.8c0.3-0.4,0.4-0.9,0.2-1.4c-0.2-0.5-0.7-0.8-1.2-0.9c-2.2-0.2-4.5,0.4-6.3,1.8l-19,14.5c-0.7,0.5-1.6,0.3-2.1-0.3
				c-0.5-0.7-0.4-1.6,0.3-2.1l19-14.5c2.4-1.9,5.4-2.7,8.4-2.4c2.5,0.2,4.2,2.4,4,4.9c-0.1,0.9-0.5,1.8-1.1,2.5l-27,27
				c0,0-0.1,0.1-0.2,0.1c-2.9,2.2-5.1,3.9-9.7,4.6l-42.7,4.7C28.9,90.8,28.8,90.8,28.8,90.8"/>
			<path id="Path_49264" class="st0" d="M11.9,100.9c-0.7,0-1.3-0.5-1.5-1.1L0.6,62.1c-0.2-0.8,0.3-1.7,1.1-1.9l0,0L18.2,56
				c0.8-0.2,1.6,0.3,1.9,1.1l9.8,37.6c0.2,0.8-0.3,1.7-1.1,1.9l-16.5,4.3C12.1,100.9,12,100.9,11.9,100.9 M3.9,62.8l9.1,34.7
				L26.5,94l-9-34.7C17.5,59.3,3.9,62.8,3.9,62.8z"/>
			<path id="Path_49265" class="st1" d="M59.1,44.4c-9,0-16.3-7.3-16.3-16.4c0-9,7.3-16.4,16.4-16.3c9,0,16.3,7.3,16.3,16.4
				C75.4,37.1,68.1,44.4,59.1,44.4 M59.1,14.7c-7.3,0-13.3,6-13.3,13.3c0,7.4,6,13.3,13.3,13.3c7.3,0,13.3-6,13.3-13.3
				C72.4,20.7,66.4,14.7,59.1,14.7"/>
		</g>
	</g>
</g>
</svg>
