<svg version="1.2" xmlns="http://www.w3.org/2000/svg" viewBox="0 0 41 41" width="41" height="41"><style>.a{fill:#f5e663}</style><path fill-rule="evenodd" class="a" d="m40.4 20.2c0 5.5 0 6.2-0.1 8.3 0 1.7-0.3 3.3-0.9 4.9-1.1 2.7-3.2 4.9-5.9 5.9-1.6 0.6-3.2 0.9-4.9 0.9-2.2 0.1-2.8 0.1-8.3 0.1-5.5 0-6.2 0-8.3-0.1-1.7 0-3.3-0.3-4.9-0.9-2.7-1.1-4.9-3.2-5.9-5.9-0.5-1.6-0.9-3.2-0.9-4.9-0.1-2.2-0.1-2.8-0.1-8.3 0-5.5 0-6.2 0.1-8.3 0-1.7 0.3-3.3 0.9-4.9 1.1-2.7 3.2-4.9 5.9-5.9 1.6-0.5 3.2-0.9 4.9-0.9 2.2-0.1 2.9-0.1 8.3-0.1 5.4 0 6.1 0 8.2 0.1 1.7 0 3.3 0.3 4.9 0.9 2.7 1.1 4.9 3.2 5.9 5.9 0.6 1.6 0.9 3.2 0.9 4.9 0.1 2.1 0.2 2.8 0.2 8.3zm-3.7-0.1c0-5.3 0-6-0.1-8.1 0-1.2-0.3-2.5-0.7-3.7-0.7-1.7-2.1-3.1-3.8-3.8-1.2-0.5-2.4-0.7-3.7-0.7-2.1-0.1-2.8-0.1-8.1-0.1-5.3 0-6 0-8.1 0.1-1.3 0-2.5 0.3-3.7 0.7-1.8 0.7-3.1 2-3.8 3.8-0.5 1.2-0.7 2.4-0.7 3.7-0.1 2.1-0.1 2.8-0.1 8.1 0 5.3 0 6 0.1 8.1 0 1.2 0.3 2.5 0.7 3.7 0.7 1.7 2 3.1 3.8 3.8 1.2 0.5 2.4 0.7 3.7 0.7 2.1 0.1 2.8 0.1 8.1 0.1 5.3 0 6 0 8.1-0.1 1.2 0 2.5-0.3 3.7-0.7 1.8-0.7 3.1-2 3.8-3.8 0.5-1.2 0.7-2.4 0.7-3.7 0.1-2.1 0.1-2.8 0.1-8.1z"/><path class="a" d="m31 7c-1.3 0-2.4 1.1-2.4 2.4 0 1.3 1.1 2.4 2.4 2.4 1.3 0 2.4-1.1 2.4-2.4 0-1.3-1-2.3-2.4-2.4z"/><path fill-rule="evenodd" class="a" d="m30.6 20.2c0 5.7-4.6 10.3-10.3 10.3-5.7 0-10.3-4.6-10.3-10.3 0-5.7 4.6-10.3 10.3-10.3 5.7 0 10.3 4.6 10.3 10.3zm-3.6-0.1c0-3.7-3-6.7-6.7-6.7-3.7 0-6.7 3-6.7 6.7 0 3.7 3 6.7 6.7 6.7 3.7 0 6.7-3 6.7-6.7z"/></svg>