<?xml version="1.0" encoding="utf-8"?>
<!-- Generator: Adobe Illustrator 28.1.0, SVG Export Plug-In . SVG Version: 6.00 Build 0)  -->
<svg version="1.1" id="Layer_1" xmlns="http://www.w3.org/2000/svg" xmlns:xlink="http://www.w3.org/1999/xlink" x="0px" y="0px"
	 viewBox="0 0 95 95" style="enable-background:new 0 0 95 95;" xml:space="preserve">
<style type="text/css">
	.st0{fill:#FFFFFF;}
	.st1{fill:#47A8BD;}
</style>
<g>
	<g>
		<g id="Group_15022">
			<path id="Path_49336" class="st0" d="M26.4,74.5c-2.6,0-4.8-2.2-4.8-4.8V19.6c0-2.6,2.1-4.8,4.8-4.8H63c2.7,0,4.8,2.1,4.8,4.8
				v50.1c0,2.7-2.2,4.8-4.8,4.8L26.4,74.5L26.4,74.5z M26.4,16.9c-1.5,0-2.6,1.2-2.6,2.6v50.1c0,1.4,1.2,2.6,2.6,2.6H63
				c1.4,0,2.6-1.2,2.6-2.6V19.6c0-1.5-1.2-2.6-2.6-2.6L26.4,16.9L26.4,16.9z"/>
			<path id="Path_49337" class="st0" d="M28.9,22.7c-0.6,0-1.1-0.5-1.1-1.1v-5.8c0-0.6,0.5-1.1,1.1-1.1h31.6c0.6,0,1.1,0.5,1.1,1.1
				v5.8c0,0.6-0.5,1.1-1.1,1.1H28.9z M30,20.6l29.5-0.1l-0.1-3.7L30,16.9L30,20.6L30,20.6z"/>
			<path id="Path_49338" class="st1" d="M33.8,38.4c-0.3,0-0.6-0.1-0.8-0.3l-2.4-2.4c-0.4-0.4-0.4-1.1,0-1.5c0.4-0.4,1.1-0.4,1.5,0
				l1.7,1.7l4-4.2c0.4-0.4,1.1-0.4,1.5,0c0.4,0.4,0.4,1.1,0,1.5l-4.8,4.8C34.4,38.3,34.1,38.4,33.8,38.4"/>
			<path id="Path_49339" class="st1" d="M33.8,50.5c-0.3,0-0.6-0.1-0.8-0.3l-2.4-2.4c-0.4-0.4-0.4-1.1,0-1.5c0.4-0.4,1.1-0.4,1.5,0
				l1.7,1.7l4-4.2c0.4-0.4,1.1-0.4,1.5,0c0.4,0.4,0.4,1.1,0,1.5l-4.8,4.8C34.4,50.4,34.1,50.5,33.8,50.5"/>
			<path id="Path_49340" class="st1" d="M33.8,62.7c-0.3,0-0.6-0.1-0.8-0.3l-2.4-2.4c-0.4-0.4-0.4-1.1,0-1.5c0.4-0.4,1.1-0.4,1.5,0
				l1.7,1.7l4-4.2c0.4-0.4,1.1-0.4,1.5,0c0.4,0.4,0.4,1.1,0,1.5l-4.8,4.8C34.4,62.5,34.1,62.7,33.8,62.7"/>
			<path id="Path_49341" class="st0" d="M44.2,38.4c-0.6,0-1.1-0.5-1.1-1.1c0-0.6,0.5-1,1.1-1.1h13.8c0.6,0,1.1,0.5,1.1,1.1
				c0,0.6-0.5,1-1.1,1.1H44.2z"/>
			<path id="Path_49342" class="st0" d="M44.2,50.5c-0.6,0-1.1-0.5-1.1-1.1c0-0.6,0.5-1,1.1-1.1h13.8c0.6,0,1.1,0.5,1.1,1.1
				c0,0.6-0.5,1-1.1,1.1H44.2z"/>
			<path id="Path_49343" class="st0" d="M44.2,62.7c-0.6,0-1.1-0.5-1.1-1.1s0.5-1.1,1.1-1.1h13.8c0.6,0,1.1,0.5,1.1,1.1
				s-0.5,1.1-1.1,1.1H44.2z"/>
		</g>
	</g>
</g>
</svg>
