<?xml version="1.0" encoding="utf-8"?>
<!-- Generator: Adobe Illustrator 28.1.0, SVG Export Plug-In . SVG Version: 6.00 Build 0)  -->
<svg version="1.1" id="Layer_1" xmlns="http://www.w3.org/2000/svg" xmlns:xlink="http://www.w3.org/1999/xlink" x="0px" y="0px"
	 viewBox="0 0 95 95" style="enable-background:new 0 0 95 95;" xml:space="preserve">
<style type="text/css">
	.st0{fill:#FFFFFF;}
	.st1{fill:#47A8BD;}
</style>
<g>
	<g>
		<g id="Group_15023">
			<path id="Path_49344" class="st0" d="M43.8,77.1c-0.5,0-1-0.4-1-1c0,0,0-0.1,0-0.1L44,63.4c0.2-2.1,1.6-3.8,3.6-4.5L58,55.7
				c0.5-0.2,1.1,0,1.3,0.5c0.2,0.5,0,1.1-0.5,1.3c-0.1,0-0.1,0-0.2,0.1l-10.4,3.3c-1.2,0.4-2.1,1.5-2.2,2.8l-1.1,11.7l42.3-0.1
				L86,63.6c-0.1-1.3-1-2.4-2.2-2.8l-10.4-3.3c-0.5-0.1-0.9-0.6-0.8-1.2c0.1-0.5,0.6-0.9,1.2-0.8c0.1,0,0.1,0,0.2,0.1L84.3,59
				c2,0.6,3.4,2.4,3.6,4.5l1.2,12.6c0.1,0.6-0.3,1-0.9,1.1c0,0-0.1,0-0.1,0L43.8,77.1L43.8,77.1z"/>
			<path id="Path_49345" class="st0" d="M66,62.1c-0.2,0-0.3,0-0.5-0.1l-7.6-4.5c-0.5-0.3-0.6-0.9-0.3-1.4l0,0
				c0.3-0.5,0.9-0.6,1.4-0.3l0,0l7.2,4.2l7.1-4.2c0.5-0.3,1.1-0.1,1.4,0.3l0,0c0.1,0.2,0.2,0.5,0.1,0.8c-0.1,0.3-0.2,0.5-0.5,0.6
				L66.5,62C66.4,62.1,66.2,62.1,66,62.1"/>
			<path id="Path_49346" class="st0" d="M66,56.8c-5.5,0-9.9-6.9-9.9-12.5c0.1-5.5,4.6-9.8,10-9.8c5.3,0.1,9.7,4.4,9.8,9.8
				C75.9,50,71.5,56.8,66,56.8 M66,36.5c-4.2-0.1-7.8,3.2-7.9,7.5c0,0.1,0,0.2,0,0.3c0,4.8,3.7,10.5,7.9,10.5s7.9-5.8,7.9-10.5
				c0.1-4.2-3.3-7.7-7.6-7.8C66.2,36.5,66.1,36.5,66,36.5"/>
			<path id="Path_49347" class="st0" d="M64.6,65.5c-0.4,0-0.8-0.2-0.9-0.6l-2-5.2c-0.2-0.5,0.1-1.1,0.6-1.3c0.1,0,0.2-0.1,0.3-0.1
				c0.4,0,0.8,0.2,0.9,0.6l1.8,4.6l1.5-0.1l1.7-4.5c0.2-0.5,0.8-0.8,1.3-0.6l0,0c0.5,0.2,0.8,0.8,0.6,1.3l-2,5.2
				c-0.2,0.4-0.5,0.6-0.9,0.6H64.6L64.6,65.5z"/>
			<path id="Path_49348" class="st0" d="M69.4,77.1c-0.5,0-0.9-0.3-1-0.8l-1.9-10.9l-1.2,0.1l-1.8,10.8c-0.1,0.5-0.5,0.8-1,0.8
				c-0.6,0-1-0.5-1-1.1c0,0,0-0.1,0-0.1l2-11.6c0.1-0.5,0.5-0.8,1-0.8h2.8c0.5,0,0.9,0.3,1,0.8l2,11.6c0.1,0.5-0.3,1.1-0.8,1.2
				L69.4,77.1L69.4,77.1z"/>
			<path id="Path_49349" class="st0" d="M51.9,77.1c-0.5-0.1-0.9-0.6-0.9-1.1l0.8-8.1c0-0.5,0.5-0.9,1-0.9c0.3,0,0.6,0.1,0.8,0.4
				c0.2,0.2,0.2,0.5,0.2,0.7L53,76.2c-0.1,0.5-0.5,0.9-1,0.9C52,77.1,51.9,77.1,51.9,77.1z"/>
			<path id="Path_49350" class="st0" d="M80,77.1c-0.5,0-0.9-0.4-1-0.9l-0.8-8.1c-0.1-0.6,0.3-1,0.9-1.1h0c0.5,0,1,0.3,1.1,0.9
				L81,76c0.1,0.6-0.3,1-0.9,1.1L80,77.1L80,77.1z"/>
			<path id="Path_49351" class="st1" d="M44.1,55.6c-0.8,0-1.5-0.3-2.1-0.9l-6-6l-26.2,0c-2.1,0-3.7-1.7-3.7-3.7V23.8
				c0-2.1,1.7-3.7,3.7-3.7h39.3c2,0,3.7,1.7,3.7,3.7v21.2c0,2-1.7,3.7-3.7,3.7H47l0.1,3.8c0,1.2-0.7,2.3-1.8,2.7
				C44.9,55.5,44.5,55.6,44.1,55.6 M9.9,22.1c-1,0-1.7,0.8-1.7,1.7v21.2c0,1,0.8,1.7,1.7,1.7h26.7c0.3,0,0.5,0.1,0.7,0.3l6.2,6.2
				c0.2,0.2,0.4,0.3,0.7,0.3c0.1,0,0.3,0,0.4-0.1c0.4-0.1,0.6-0.5,0.6-0.9v-4.8c0-0.5,0.5-1,1-1h3c1,0,1.7-0.8,1.7-1.7V23.8
				c0-1-0.8-1.7-1.7-1.7C49.2,22.1,9.9,22.1,9.9,22.1z"/>
			<path id="Path_49352" class="st1" d="M20.1,37.6c-1.9,0-3.4-1.5-3.4-3.4s1.5-3.4,3.4-3.4s3.4,1.5,3.4,3.4l0,0
				C23.6,36.1,22,37.6,20.1,37.6 M20.1,32.7c-0.8,0-1.4,0.6-1.4,1.4s0.6,1.4,1.4,1.4s1.4-0.6,1.4-1.4S20.9,32.7,20.1,32.7"/>
			<path id="Path_49353" class="st1" d="M29.5,37.6c-1.9,0-3.4-1.5-3.4-3.4s1.5-3.4,3.4-3.4s3.4,1.5,3.4,3.4l0,0
				C32.9,36.1,31.4,37.6,29.5,37.6 M29.5,32.7c-0.8,0-1.4,0.6-1.4,1.4s0.6,1.4,1.4,1.4S31,35,31,34.2S30.3,32.7,29.5,32.7"/>
			<path id="Path_49354" class="st1" d="M38.9,37.6c-1.9,0-3.4-1.5-3.4-3.4s1.5-3.4,3.4-3.4s3.4,1.5,3.4,3.4l0,0
				C42.3,36.1,40.8,37.6,38.9,37.6 M38.9,32.7c-0.8,0-1.4,0.6-1.4,1.4s0.6,1.4,1.4,1.4s1.4-0.6,1.4-1.4S39.7,32.7,38.9,32.7"/>
		</g>
	</g>
</g>
</svg>
