<?xml version="1.0" encoding="utf-8"?>
<!-- Generator: Adobe Illustrator 28.1.0, SVG Export Plug-In . SVG Version: 6.00 Build 0)  -->
<svg version="1.1" id="Layer_1" xmlns="http://www.w3.org/2000/svg" xmlns:xlink="http://www.w3.org/1999/xlink" x="0px" y="0px"
	 viewBox="0 0 80 80" style="enable-background:new 0 0 80 80;" xml:space="preserve">
<style type="text/css">
	.st0{fill:#47A8BD;}
	.st1{fill:#1D1D1B;}
</style>
<g>
	<g>
		<g id="Group_14889">
			<path id="Path_49242" class="st0" d="M28.7,65.5c-2.4,0-4.3-1.9-4.3-4.3c0-1.1,0.4-2.1,1.1-2.9l2.2-2.3c1.6-1.8,4.3-2,6.1-0.4
				s2,4.3,0.4,6.1c-0.1,0.1-0.1,0.1-0.2,0.2l-2.2,2.3c-0.8,0.8-1.9,1.3-3,1.4L28.7,65.5 M30.9,56.1h-0.1c-0.7,0-1.4,0.3-1.9,0.9
				l-2.2,2.3l0,0c-1,1.1-1,2.8,0.1,3.9l0,0c0.5,0.5,1.2,0.8,2,0.7c0.7,0,1.4-0.3,1.9-0.9l2.2-2.3c1-1.1,1-2.8-0.1-3.9
				C32.2,56.4,31.6,56.1,30.9,56.1 M26.1,58.8L26.1,58.8z"/>
			<path id="Path_49243" class="st0" d="M23.5,60.7c-2.4,0-4.3-1.9-4.3-4.3c0-1.1,0.4-2.1,1.1-2.9l2.9-3.2c0.8-0.8,1.9-1.3,3-1.4
				c1.1,0,2.2,0.4,3.1,1.1c1.7,1.6,1.8,4.3,0.2,6.1l0,0l-2.9,3.2C25.9,60.2,24.7,60.7,23.5,60.7 M21.5,54.5c-1,1.1-0.9,2.9,0.2,3.9
				c1.1,1,2.8,0.9,3.8-0.1l2.9-3.2c1-1.1,1-2.8-0.1-3.9s-2.8-1-3.9,0.1c0,0,0,0,0,0L21.5,54.5L21.5,54.5z"/>
			<path id="Path_49244" class="st0" d="M18.4,55.9c-2.4,0-4.3-1.9-4.3-4.3c0-1.1,0.4-2.1,1.1-2.9l4.2-4.5c1.6-1.7,4.4-1.8,6.1-0.2
				c1.7,1.6,1.8,4.3,0.2,6l-4.2,4.5C20.7,55.4,19.6,55.9,18.4,55.9 M16.4,49.7L16.4,49.7c-1,1.1-1,2.8,0.1,3.9c1.1,1,2.9,1,3.9-0.2
				l4.2-4.5c1-1.1,1-2.8-0.1-3.9s-2.9-1-3.9,0.2L16.4,49.7z"/>
			<path id="Path_49245" class="st0" d="M13.2,51.1c-2.4,0-4.3-1.9-4.3-4.3c0-1.1,0.4-2.1,1.1-2.9l2.9-3.2c1.6-1.7,4.3-1.8,6.1-0.2
				c1.7,1.6,1.9,4.3,0.2,6.1l0,0l-2.9,3.2c-0.8,0.8-1.9,1.3-3,1.4L13.2,51.1 M11.2,45c-1,1.1-1,2.8,0.1,3.9l0,0
				c0.5,0.5,1.2,0.8,2,0.7s1.4-0.3,1.9-0.9l2.9-3.2c1-1.1,1-2.8-0.1-3.9s-2.8-1-3.9,0.1c0,0,0,0,0,0L11.2,45L11.2,45z"/>
			<path id="Path_49246" class="st1" d="M56,62.1c-1.3,0-2.5-0.5-3.4-1.4l-6.2-6.2c-0.3-0.3-0.3-0.8,0-1.1c0.3-0.3,0.8-0.3,1.1,0
				l6.2,6.2c1.2,1.3,3.3,1.3,4.6,0.1c1.3-1.2,1.3-3.3,0.1-4.6c0,0,0,0-0.1-0.1l-9.5-9.5c-0.3-0.3-0.3-0.8,0-1.1s0.8-0.3,1.1,0
				l9.5,9.5c1.9,1.9,1.9,4.9,0,6.8C58.4,61.6,57.2,62.1,56,62.1"/>
			<path id="Path_49247" class="st1" d="M48.4,65.9c-1.3,0-2.5-0.5-3.4-1.4l-2.6-2.6c-0.3-0.3-0.3-0.8,0.1-1.1c0.3-0.3,0.7-0.3,1,0
				l2.6,2.6c1.3,1.3,3.3,1.3,4.6,0s1.3-3.3,0-4.6c0,0,0,0,0,0L43.8,52c-0.3-0.3-0.3-0.8,0-1.1c0.3-0.3,0.8-0.3,1.1,0l6.9,6.9
				c1.9,1.9,1.9,4.9,0,6.8C50.9,65.4,49.7,65.9,48.4,65.9"/>
			<path id="Path_49248" class="st1" d="M62.3,57.1c-1.3,0-2.5-0.5-3.4-1.4l-9.5-9.5c-0.3-0.3-0.3-0.8,0.1-1.1c0.3-0.3,0.7-0.3,1,0
				l9.5,9.5c1.3,1.3,3.3,1.3,4.6,0c1.3-1.3,1.3-3.3,0-4.6l-9.5-9.5c-0.3-0.3-0.3-0.8,0-1.1c0.3-0.3,0.8-0.3,1.1,0l9.5,9.5
				c1.9,1.9,1.9,4.9,0,6.8C64.8,56.6,63.6,57.1,62.3,57.1"/>
			<path id="Path_49249" class="st1" d="M13.1,42.4c-0.3,0-0.6-0.2-0.7-0.4l-3.3-6c-0.2-0.3-0.1-0.7,0.1-0.9l13.7-13.7
				c0.2-0.2,0.6-0.3,0.9-0.2l5.6,2.5c0.4,0.2,0.6,0.6,0.4,1c-0.2,0.4-0.6,0.6-1,0.4c0,0,0,0,0,0l-5.1-2.2L10.8,35.8l3,5.5
				c0.2,0.4,0.1,0.8-0.3,1C13.3,42.4,13.2,42.4,13.1,42.4"/>
			<path id="Path_49250" class="st1" d="M40.1,69c-1.3,0-2.5-0.5-3.4-1.4l-4.7-4.7c-0.3-0.3-0.3-0.8,0-1.1s0.8-0.3,1.1,0
				c0,0,0,0,0,0l4.7,4.7c1.3,1.3,3.3,1.2,4.6,0c1.2-1.3,1.2-3.3,0-4.6l-2.7-2.7c-0.3-0.3-0.3-0.8,0-1.1c0.3-0.3,0.8-0.3,1.1,0
				c0,0,0,0,0,0l2.7,2.7c1.9,1.9,1.9,4.9,0,6.8C42.6,68.5,41.4,69,40.1,69"/>
			<path id="Path_49251" class="st0" d="M62.6,47.7c-0.2,0-0.4-0.1-0.5-0.2L51.2,36.6c-2.6-2.6-6.6-4.2-11-4.5
				c-2.2,0-4.4,0.1-6.5,0.4c-1.5,0.3-3,0.4-4.5,0.2c-2.3-0.4-3.9-2.4-3.8-4.7c0-0.9,0.1-3.4,2.4-4.3c0.1,0,0.2,0,0.4,0
				c2.7,0.2,5.4-0.3,7.8-1.6c5.1-2.8,9.7-2.9,14.6-0.3c2,1,4.3,0.9,6.2-0.2l0.8-0.5c0.3-0.2,0.7-0.1,1,0.1l12.7,12.8
				c0.2,0.2,0.3,0.5,0.2,0.7c-0.8,3.7-2.7,7-5.3,9.6l-3,3C63,47.6,62.8,47.7,62.6,47.7 M39.2,30.5c0.4,0,0.8,0,1.1,0
				c4.8,0.3,9.1,2.1,12,5l10.2,10.2l2.4-2.4c2.3-2.3,4-5.2,4.8-8.5l-12-12.1L57.5,23c-2.3,1.4-5.3,1.5-7.7,0.3
				c-4.4-2.3-8.5-2.2-13.1,0.3c-2.6,1.4-5.5,2-8.5,1.8c-0.8,0.4-1.2,1.2-1.2,2.8c-0.1,1.6,1,2.9,2.6,3.2c1.3,0.1,2.6,0,3.9-0.3
				C35.4,30.8,37.3,30.6,39.2,30.5"/>
			<path id="Path_49252" class="st1" d="M7,39.2c-0.2,0-0.4-0.1-0.6-0.2l-5.3-5.3c-0.3-0.3-0.3-0.8,0-1.1l19.1-19.1
				c0.3-0.3,0.8-0.3,1.1,0l5.3,5.3c0.3,0.3,0.3,0.8,0,1.1L7.6,38.9C7.4,39.1,7.2,39.2,7,39.2 M2.8,33L7,37.3l18-18L20.9,15L2.8,33z"
				/>
			<path id="Path_49253" class="st0" d="M73.9,38.7c-0.2,0-0.4-0.1-0.6-0.2L54.4,19.5c-0.3-0.3-0.3-0.8,0-1.1l4.9-4.9
				c0.3-0.3,0.8-0.3,1.1,0l18.9,18.9c0.3,0.3,0.3,0.8,0,1.1l-4.9,4.9C74.3,38.6,74.2,38.7,73.9,38.7 M56.1,19l17.8,17.8l3.8-3.8
				L59.9,15.2L56.1,19L56.1,19z"/>
		</g>
	</g>
</g>
</svg>
