<?xml version="1.0" encoding="utf-8"?>
<!-- Generator: Adobe Illustrator 28.1.0, SVG Export Plug-In . SVG Version: 6.00 Build 0)  -->
<svg version="1.1" id="Layer_1" xmlns="http://www.w3.org/2000/svg" xmlns:xlink="http://www.w3.org/1999/xlink" x="0px" y="0px"
	 viewBox="0 0 95 95" style="enable-background:new 0 0 95 95;" xml:space="preserve">
<style type="text/css">
	.st0{fill:#47A8BD;}
	.st1{fill:#FFFFFF;}
</style>
<g id="Group_14895">
	<g>
		<g>
			<g id="Group_14894">
				<path id="Path_49266" class="st0" d="M61,77.6c-4.5,0-8.2-3.7-8.2-8.2s3.7-8.2,8.2-8.2s8.2,3.7,8.2,8.2S65.5,77.6,61,77.6
					 M61,62.6c-3.8,0-6.8,3-6.8,6.8s3,6.8,6.8,6.8s6.8-3,6.8-6.8l0,0C67.8,65.6,64.8,62.6,61,62.6"/>
				<path id="Path_49267" class="st0" d="M61,55.3c-4.5,0-8.2-3.7-8.2-8.2s3.7-8.2,8.2-8.2s8.2,3.7,8.2,8.2l0,0
					C69.2,51.6,65.5,55.3,61,55.3 M61,40.3c-3.8,0-6.8,3-6.8,6.8s3,6.8,6.8,6.8s6.8-3,6.8-6.8l0,0C67.8,43.3,64.8,40.3,61,40.3"/>
				<path id="Path_49268" class="st0" d="M61,33c-4.5,0-8.2-3.7-8.2-8.2s3.7-8.2,8.2-8.2s8.2,3.7,8.2,8.2l0,0
					C69.2,29.3,65.5,33,61,33 M61,18c-3.8,0-6.8,3-6.8,6.8s3,6.8,6.8,6.8s6.8-3,6.8-6.8l0,0C67.8,21,64.8,18,61,18"/>
				<path id="Path_49269" class="st0" d="M60.7,28.1c-0.2,0-0.4-0.1-0.5-0.2l-2.3-2.2c-0.3-0.3-0.3-0.7,0-1c0.3-0.3,0.7-0.3,1,0
					l1.8,1.7l2.9-3.8c0.2-0.3,0.7-0.4,1-0.1c0.3,0.2,0.4,0.7,0.1,1l-3.4,4.4C61.1,28,60.9,28.1,60.7,28.1L60.7,28.1"/>
				<path id="Path_49270" class="st0" d="M60.7,50.5c-0.2,0-0.4-0.1-0.5-0.2L57.8,48c-0.3-0.3-0.3-0.7,0-1c0.3-0.3,0.7-0.3,1,0
					l1.8,1.7l3-3.8c0.2-0.3,0.7-0.4,1-0.1c0.3,0.2,0.4,0.7,0.1,1l-3.4,4.4C61.1,50.3,60.9,50.4,60.7,50.5L60.7,50.5"/>
				<path id="Path_49271" class="st0" d="M60.7,72.8c-0.2,0-0.4-0.1-0.5-0.2l-2.3-2.2c-0.3-0.3-0.3-0.7,0-1c0.3-0.3,0.7-0.3,1,0l0,0
					l1.8,1.7l2.9-3.8c0.2-0.3,0.7-0.4,1-0.1s0.4,0.7,0.1,1l-3.4,4.4C61.1,72.7,60.9,72.8,60.7,72.8L60.7,72.8"/>
				<path id="Path_49272" class="st1" d="M30.1,27.6L30.1,27.6c-3.6,0-6.4-3-6.4-6.5c0-3.5,2.9-6.3,6.4-6.3h0c3.6,0,6.4,2.9,6.4,6.4
					l0,0C36.5,24.8,33.7,27.6,30.1,27.6 M30.1,16.2c-2.8,0-5,2.2-5,5c0,2.8,2.2,5,5,5l0,0c1.3,0,2.6-0.5,3.5-1.5c2-1.9,2-5.1,0-7.1
					C32.7,16.7,31.5,16.2,30.1,16.2L30.1,16.2L30.1,16.2z M35.8,21.2L35.8,21.2z"/>
				<path id="Path_49273" class="st1" d="M39.7,58.3c-1.9,0-3.5-1.5-3.5-3.4c0-0.4,0.3-0.7,0.7-0.7s0.7,0.3,0.7,0.7c0,1.1,1,2,2.1,2
					c1.3-0.1,2.3-1.2,2.3-2.5L42.4,39c0-2.7-1.8-5-4.4-5.6c-2.6-0.7-5.3-1-8-1c-0.4,0-0.7-0.3-0.7-0.7s0.3-0.7,0.7-0.7l0,0
					c2.8,0,5.7,0.3,8.4,1c3.2,0.8,5.5,3.7,5.4,7.1l-0.5,15.4C43.4,56.5,41.7,58.2,39.7,58.3"/>
				<path id="Path_49274" class="st1" d="M20.4,58.3c-2.1-0.1-3.7-1.8-3.7-3.9L16.2,39c0-3.3,2.2-6.2,5.4-7c2.7-0.7,5.6-1.1,8.4-1
					l0,0c0.4,0,0.7,0.3,0.7,0.7c0,0.4-0.3,0.7-0.7,0.7c-2.7,0-5.4,0.3-8,1c-2.6,0.6-4.4,3-4.4,5.6l0.5,15.4c0,1.3,1,2.4,2.3,2.5
					c1.1,0,2-0.9,2-2c0-0.4,0.3-0.7,0.7-0.7s0.7,0.3,0.7,0.7C23.8,56.7,22.2,58.3,20.4,58.3"/>
				<path id="Path_49275" class="st1" d="M33.3,78.5c-1,0-2.1-0.4-2.8-1.1c-0.8-0.7-1.2-1.6-1.2-2.7v-16c0-0.4,0.3-0.7,0.7-0.7
					s0.7,0.3,0.7,0.7v16c0,0.6,0.3,1.2,0.7,1.6c0.6,0.5,1.3,0.8,2.1,0.7c1.3,0,2.3-1,2.4-2.3l0.4-34.2c0-0.4,0.3-0.7,0.7-0.7l0,0
					c0.4,0,0.7,0.3,0.7,0.7l-0.4,34.2c-0.1,2-1.7,3.6-3.7,3.7C33.5,78.5,33.4,78.5,33.3,78.5"/>
				<path id="Path_49276" class="st1" d="M26.7,78.5c-0.1,0-0.2,0-0.4,0c-2-0.1-3.6-1.7-3.7-3.7l-0.4-34.2c0-0.4,0.3-0.7,0.7-0.7
					l0,0c0.4,0,0.7,0.3,0.7,0.7L24,74.8c0.1,1.3,1.1,2.2,2.4,2.3c0.8,0.1,1.5-0.2,2.1-0.7c0.5-0.4,0.7-1,0.7-1.6v-16
					c0-0.4,0.3-0.7,0.7-0.7s0.7,0.3,0.7,0.7l0,0v16c0,1-0.4,2-1.2,2.7C28.7,78.1,27.7,78.5,26.7,78.5"/>
			</g>
		</g>
	</g>
</g>
</svg>
