<?xml version="1.0" encoding="utf-8"?>
<!-- Generator: Adobe Illustrator 28.1.0, SVG Export Plug-In . SVG Version: 6.00 Build 0)  -->
<svg version="1.1" id="Layer_1" xmlns="http://www.w3.org/2000/svg" xmlns:xlink="http://www.w3.org/1999/xlink" x="0px" y="0px"
	 viewBox="0 0 110 110" style="enable-background:new 0 0 110 110;" xml:space="preserve">
<style type="text/css">
	.st0{fill:#FFFFFF;}
	.st1{fill:#47A8BD;}
</style>
<g id="Group_14962">
	<g>
		<g>
			<g id="Group_14852">
				<path id="Path_49191" class="st0" d="M54.8,11.7c-0.8,0-1.5-0.7-1.5-1.5l0,0V4.3c0-0.8,0.7-1.5,1.5-1.5s1.5,0.7,1.5,1.5l0,0v5.9
					C56.3,11.1,55.7,11.7,54.8,11.7L54.8,11.7"/>
				<path id="Path_49192" class="st0" d="M71.2,26.6H38.5c-0.8,0-1.5-0.7-1.5-1.5s0.7-1.5,1.5-1.5h32.7c0.8,0,1.5,0.7,1.5,1.5
					S72.1,26.6,71.2,26.6L71.2,26.6"/>
				<path id="Path_49193" class="st0" d="M71.2,47.4H38.5c-0.8,0-1.5-0.7-1.5-1.5s0.7-1.5,1.5-1.5h32.7c0.8,0,1.5,0.7,1.5,1.5
					S72.1,47.4,71.2,47.4L71.2,47.4"/>
				<path id="Path_49194" class="st0" d="M43,41.5c-0.8,0-1.5-0.7-1.5-1.5l0,0V25.1c0-0.8,0.7-1.5,1.5-1.5c0.8,0,1.5,0.7,1.5,1.5V40
					C44.4,40.8,43.8,41.5,43,41.5L43,41.5"/>
				<path id="Path_49195" class="st0" d="M66.8,41.5c-0.8,0-1.5-0.7-1.5-1.5l0,0V25.1c0-0.8,0.7-1.5,1.5-1.5s1.5,0.7,1.5,1.5V40
					C68.2,40.8,67.6,41.5,66.8,41.5L66.8,41.5"/>
				<path id="Path_49196" class="st0" d="M74.2,106.9c-0.8,0-1.4-0.6-1.5-1.3l-7.3-58.2H44.3L37,105.6c-0.1,0.8-0.9,1.4-1.7,1.2
					c-0.8-0.1-1.3-0.8-1.3-1.6l7.4-59.5c0.1-0.7,0.7-1.3,1.5-1.3h23.8c0.8,0,1.4,0.6,1.5,1.3l7.4,59.5c0.1,0.8-0.5,1.6-1.3,1.7l0,0
					C74.3,106.9,74.3,106.9,74.2,106.9"/>
				<path id="Path_49197" class="st0" d="M66.8,26.6H43c-0.8,0-1.5-0.7-1.5-1.5l0,0v-3c-0.1-7.4,5.9-13.4,13.3-13.5
					c7.4-0.1,13.4,5.9,13.5,13.3c0,0.1,0,0.1,0,0.2v3C68.2,25.9,67.6,26.6,66.8,26.6 M44.4,23.6h20.8v-1.5c0-5.8-4.7-10.4-10.4-10.4
					s-10.4,4.7-10.4,10.4l0,0V23.6L44.4,23.6z"/>
				<path id="Path_49198" class="st0" d="M54.8,41.5c-3.3,0-6-2.7-6-6s2.7-6,6-6c3.3,0,6,2.7,6,6l0,0C60.8,38.8,58.1,41.5,54.8,41.5
					 M54.8,32.5c-1.6,0-3,1.3-3,3c0,1.6,1.3,3,3,3c1.6,0,3-1.3,3-3C57.8,33.9,56.5,32.6,54.8,32.5"/>
				<path id="Path_49199" class="st0" d="M66.8,53.4H43c-0.8,0-1.5-0.7-1.5-1.5s0.7-1.5,1.5-1.5h23.8c0.8,0,1.5,0.7,1.5,1.5
					S67.6,53.4,66.8,53.4"/>
				<path id="Path_49200" class="st0" d="M39.9,79c-0.8,0-1.5-0.7-1.5-1.5c0-0.5,0.3-1,0.7-1.3L67.3,60c0.7-0.4,1.6-0.2,2.1,0.5
					s0.2,1.6-0.5,2c0,0-0.1,0-0.1,0.1L40.7,78.8C40.4,78.9,40.2,79,39.9,79"/>
				<path id="Path_49201" class="st0" d="M41,68.1c-0.8,0-1.5-0.7-1.5-1.5c0-0.5,0.3-1,0.7-1.3l26.2-15.2c0.7-0.4,1.6-0.2,2,0.6
					c0.4,0.7,0.2,1.6-0.5,2L41.8,67.9C41.5,68.1,41.3,68.1,41,68.1"/>
				<path id="Path_49202" class="st0" d="M38.3,93.4c-0.8,0-1.5-0.7-1.5-1.5c0-0.5,0.3-1,0.7-1.3l31.3-18.1c0.7-0.4,1.6-0.1,2,0.6
					c0.4,0.7,0.2,1.6-0.5,2L39.1,93.2C38.8,93.3,38.6,93.4,38.3,93.4"/>
				<path id="Path_49203" class="st0" d="M37.2,104.4c-0.8,0-1.5-0.7-1.5-1.5c0-0.5,0.3-1,0.7-1.3l33.2-19.2c0.7-0.4,1.6-0.2,2,0.5
					s0.2,1.6-0.5,2c0,0,0,0,0,0l-33.2,19.2C37.7,104.3,37.5,104.4,37.2,104.4"/>
				<path id="Path_49204" class="st1" d="M11.7,56.4c-0.8,0-1.5-0.7-1.5-1.5c0-0.5,0.3-1,0.7-1.2l20.8-13.4c0.7-0.5,1.6-0.3,2.1,0.4
					c0.5,0.7,0.3,1.6-0.4,2.1c0,0-0.1,0-0.1,0.1L12.5,56.1C12.3,56.3,12,56.4,11.7,56.4"/>
				<path id="Path_49205" class="st1" d="M32.8,31.1c-0.3,0-0.5-0.1-0.7-0.2L11,19c-0.7-0.4-1-1.3-0.6-2c0.4-0.7,1.3-1,2-0.6l0,0
					l21.1,11.9c0.7,0.4,1,1.3,0.6,2C33.9,30.8,33.4,31.1,32.8,31.1"/>
				<path id="Path_49206" class="st1" d="M25.1,37h-6c-0.8,0-1.5-0.7-1.5-1.5s0.7-1.5,1.5-1.5h6c0.8,0,1.5,0.7,1.5,1.5
					S25.9,37,25.1,37L25.1,37"/>
				<path id="Path_49207" class="st1" d="M98,56.4c-0.3,0-0.6-0.1-0.8-0.2L76.4,42.7c-0.7-0.5-0.8-1.4-0.4-2.1
					c0.4-0.6,1.3-0.8,2-0.4l20.8,13.4c0.7,0.4,0.9,1.4,0.4,2.1C99,56.1,98.5,56.4,98,56.4"/>
				<path id="Path_49208" class="st1" d="M76.9,31.1c-0.8,0-1.5-0.7-1.5-1.5c0-0.5,0.3-1,0.8-1.3l21.1-11.9c0.7-0.4,1.6-0.1,2,0.6
					c0.4,0.7,0.2,1.6-0.6,2l0,0L77.6,30.9C77.4,31,77.2,31.1,76.9,31.1"/>
				<path id="Path_49209" class="st1" d="M90.6,37h-5.9c-0.8,0-1.5-0.7-1.5-1.5s0.7-1.5,1.5-1.5h5.9c0.8,0,1.5,0.7,1.5,1.5
					S91.4,37,90.6,37L90.6,37"/>
			</g>
		</g>
	</g>
</g>
</svg>
