<?xml version="1.0" encoding="utf-8"?>
<!-- Generator: Adobe Illustrator 28.1.0, SVG Export Plug-In . SVG Version: 6.00 Build 0)  -->
<svg version="1.1" id="Layer_1" xmlns="http://www.w3.org/2000/svg" xmlns:xlink="http://www.w3.org/1999/xlink" x="0px" y="0px"
	 viewBox="0 0 95 95" style="enable-background:new 0 0 95 95;" xml:space="preserve">
<style type="text/css">
	.st0{fill:#47A8BD;}
	.st1{fill:#FFFFFF;}
</style>
<g>
	<g>
		<g id="Group_15020-2">
			<path id="Path_49330" class="st0" d="M26.8,61c-6,0-10.8-4.9-10.8-10.9c0-5,3.4-9.4,8.3-10.5L40,35.8l0.2,0
				c0.5,0,0.8,0.7,0.9,1.2l4.7,18.7c0.1,0.6-0.2,1.2-0.8,1.3l0,0l-15.8,3.8C28.5,60.9,27.7,61,26.8,61 M24.8,41.7
				c-4.7,1.1-7.6,5.7-6.5,10.4s5.7,7.6,10.4,6.5c0.1,0,0.1,0,0.2,0L43.7,55l-4.2-16.9L24.8,41.7L24.8,41.7z"/>
			<path id="Path_49331" class="st1" d="M76.1,61.6c-0.2,0-0.3,0-0.5-0.1l-3.8-1.8c-8.4-4-17.8-4.9-26.8-2.8l-0.2,0
				c-0.2,0-0.4-0.1-0.6-0.2c-0.2-0.2-0.4-0.4-0.5-0.7l-4.6-19c-0.1-0.6,0.2-1.2,0.8-1.3l0,0c9-2.2,17-7.3,22.6-14.7l2.5-3.3
				c0.2-0.3,0.5-0.4,0.9-0.4c0.5,0,0.9,0.4,1.1,0.8l10.1,42c0.1,0.6-0.2,1.2-0.8,1.3C76.3,61.6,76.2,61.6,76.1,61.6 M54.5,53.6
				c6.3,0,12.6,1.4,18.3,4.1l2,0.9l-9.3-38l-1.1,1.8c-5.8,7.4-13.8,12.8-22.9,15.2l4.2,17C48.6,54,51.6,53.6,54.5,53.6"/>
			<path id="Path_49332" class="st0" d="M35,73.7c-2.4,0-4.3-1.9-4.3-4.3c0-0.2,0-0.4,0-0.7l1.6-10.3c0.1-0.4,0.4-0.8,0.8-0.9
				l6.8-1.6l0.2,0c0.6,0,1.1,0.5,1.1,1.1c0,0.1,0,0.1,0,0.2l-2,12.9C39,72.2,37.2,73.7,35,73.7 M34.3,59.5L32.9,69
				c-0.2,1.2,0.6,2.3,1.8,2.5c0.1,0,0.2,0,0.3,0c1.1,0,2-0.8,2.2-1.8l1.8-11.3L34.3,59.5L34.3,59.5z"/>
			<path id="Path_49333" class="st1" d="M72.8,47.6c-0.5,0-0.9-0.3-1.1-0.8l-3.4-14c-0.1-0.6,0.2-1.2,0.8-1.3c4.2-1,8.4,1.6,9.4,5.8
				l0.2,0.9c1,4.2-1.6,8.4-5.8,9.5l0,0L72.8,47.6L72.8,47.6z M70.6,33.4l3,11.8c1-0.6,1.8-1.4,2.4-2.3c0.8-1.3,1-2.8,0.7-4.3
				l-0.2-0.9c-0.6-2.5-2.9-4.4-5.5-4.4C70.9,33.4,70.7,33.4,70.6,33.4"/>
		</g>
	</g>
</g>
</svg>
