<svg version="1.2" xmlns="http://www.w3.org/2000/svg" viewBox="0 0 39 37" width="39" height="37"><style>.a{fill:#f5e663}</style><path class="a" d="m5.1 0c-1.9-0.1-3.7 1-4.4 2.7-1.1 2.3 0 5.1 2.3 6.1 2.3 1.1 5.1 0.1 6.1-2.2 1.1-2.4 0-5.1-2.3-6.2q-0.8-0.3-1.7-0.4zm4 36.7v-24.7h-8.2v24.7h8.2zm12.8 0v-13.9c-0.1-1.5 0.5-3 1.7-3.9 1.6-1.6 4.2-1.5 5.7 0.2 0.4 0.5 0.8 1.1 0.9 1.7q0.4 1.4 0.3 2.8 0.1 6.2 0.1 12.3v0.7h8.2c0-0.2 0-0.4 0-0.6q0-6.6 0-13.2 0-1.6-0.2-3.1c-0.2-4.5-3.9-8.2-8.5-8.3-3.1-0.4-6.1 0.9-7.8 3.5q-0.2 0.3-0.4 0.5v-3.4h-8.2v24.6h8.2z"/></svg>