<?xml version="1.0" encoding="utf-8"?>
<!-- Generator: Adobe Illustrator 28.1.0, SVG Export Plug-In . SVG Version: 6.00 Build 0)  -->
<svg version="1.1" id="Layer_1" xmlns="http://www.w3.org/2000/svg" xmlns:xlink="http://www.w3.org/1999/xlink" x="0px" y="0px"
	 viewBox="0 0 80 80" style="enable-background:new 0 0 80 80;" xml:space="preserve">
<style type="text/css">
	.st0{fill:#1D244B;}
	.st1{fill:#47A8BD;}
</style>
<g>
	<g>
		<g id="Group_15235">
			<path id="Path_49401" class="st0" d="M39.7,21.2c-4.2,0-7-3.2-7-8s2.8-8,7-8s7,3.2,7,8S43.9,21.2,39.7,21.2 M39.7,7.2
				c-3.7,0-5,3.2-5,6s1.3,6,5,6s5-3.2,5-6S43.4,7.2,39.7,7.2"/>
			<path id="Path_49402" class="st1" d="M39.7,75.2c-0.2,0-0.4-0.1-0.6-0.2l-9.6-6.9c-1.7-1.2-2.8-3-3.2-5.1l-3-17.7
				c-0.1-0.5,0.3-1.1,0.8-1.2c0,0,0.1,0,0.1,0c7.6-0.1,11.5-3.7,13.2-5.9c0.9-1.2,2.6-1.4,3.8-0.5c0.2,0.2,0.4,0.3,0.5,0.5
				c1.6,2.2,5.5,5.9,13.2,5.9c0.5,0,1,0.5,1,1c0,0,0,0.1,0,0.2l-3,17.7c-0.3,2-1.5,3.9-3.2,5.1L40.2,75
				C40.1,75.1,39.9,75.2,39.7,75.2 M25.5,46.1l2.8,16.6c0.2,1.5,1.1,2.9,2.4,3.8l9.1,6.5l9.1-6.5c1.3-0.9,2.1-2.3,2.4-3.8l2.8-16.6
				c-7.8-0.4-11.9-4.3-13.6-6.7c-0.1-0.2-0.3-0.3-0.6-0.3c-0.2,0-0.4,0.1-0.6,0.3C37.3,41.8,33.1,45.7,25.5,46.1"/>
			<path id="Path_49403" class="st1" d="M49.8,52.5c-3.6-0.8-6.8-2.8-9.2-5.7c-0.2-0.3-0.5-0.4-0.9-0.4l0,0c-0.3,0-0.7,0.2-0.9,0.4
				c-2.3,2.8-5.5,4.7-9,5.6l-0.5-1.9c3.1-0.8,5.9-2.5,8-4.9c0.6-0.7,1.5-1.2,2.5-1.2c1,0,1.8,0.4,2.4,1.2c2.1,2.5,4.9,4.3,8.1,5
				L49.8,52.5L49.8,52.5z"/>
			<path id="Path_49404" class="st1" d="M74.7,46.2h-15c-0.5,0-1-0.5-1-1s0.5-1,1-1h15c0.6,0,1,0.5,1,1S75.2,46.2,74.7,46.2"/>
			<path id="Path_49405" class="st1" d="M68.7,56.2h-5c-0.5,0-1-0.5-1-1s0.5-1,1-1h5c0.6,0,1,0.5,1,1S69.2,56.2,68.7,56.2"/>
			<path id="Path_49406" class="st1" d="M59.7,56.2h-2c-0.5,0-1-0.5-1-1s0.5-1,1-1h2c0.5,0,1,0.5,1,1S60.2,56.2,59.7,56.2"/>
			<path id="Path_49407" class="st1" d="M61.7,66.2h-6c-0.5,0-1-0.4-1-1s0.5-1,1-1h6c0.5,0,1,0.4,1,1S62.2,66.2,61.7,66.2"/>
			<path id="Path_49408" class="st1" d="M19.7,46.2h-15c-0.6,0-1-0.5-1-1s0.4-1,1-1h15c0.5,0,1,0.5,1,1S20.2,46.2,19.7,46.2"/>
			<path id="Path_49409" class="st1" d="M15.7,56.2h-5c-0.6,0-1-0.5-1-1s0.4-1,1-1h5c0.5,0,1,0.5,1,1S16.2,56.2,15.7,56.2"/>
			<path id="Path_49410" class="st1" d="M21.7,56.2h-2c-0.5,0-1-0.5-1-1s0.5-1,1-1h2c0.5,0,1,0.5,1,1S22.2,56.2,21.7,56.2"/>
			<path id="Path_49411" class="st1" d="M23.7,66.2h-6c-0.5,0-1-0.4-1-1s0.5-1,1-1h6c0.5,0,1,0.4,1,1S24.2,66.2,23.7,66.2"/>
			<path id="Path_49412" class="st0" d="M54,41.4l-1.9-0.6l1.4-5c0.2-0.5,0.7-0.8,1.2-0.7c0,0,0,0,0.1,0c4.3,1.6,9.2,1.4,14.5-0.7
				c4.8-14.1-6.6-23.8-6.7-23.8l-4.2-3.4c-0.2-0.1-0.4-0.1-0.6,0c0,0-0.1,0.1-0.1,0.1l-2.7,1.7c-0.3,0.2-0.5,0.5-0.5,0.8L54.6,12
				c0,0.1,0,0.1,0,0.2c0,0.2,0,0.4,0.2,0.4l1.2,0.6c0.1,0.1,0.3,0.1,0.4,0l1.5-0.9c0.2-0.1,0.4-0.2,0.6-0.2c0.8,0.1,3.6,0.3,4.6,1.2
				c0.5,0.4,0.9,0.8,1.2,1.3c1.1,1.7,1.3,3.8,0.7,5.6c-0.5,1.4-1.8,5.2,0.3,8.5c0.3,0.4,0.2,1-0.2,1.3c-0.7,0.6-1.3,0-1.7-0.4
				c-3.5-3.4-7.1-4-10.6-1.9c-0.2,0.1-0.5,0.2-0.8,0.1c-0.1,0-8-2.6-12.4-2.7c-4.4,0.1-12.3,2.7-12.4,2.7C27,28,26.7,28,26.4,27.8
				c-3.5-2.1-7.1-1.5-10.6,1.9c-0.4,0.4-1,1-1.7,0.4c-0.4-0.3-0.5-0.9-0.2-1.3c2.1-3.3,0.8-7,0.4-8.5c-0.6-1.9-0.4-4,0.7-5.6
				c0.4-0.5,0.8-0.9,1.2-1.3c1-0.9,3.8-1.1,4.6-1.2c0.2,0,0.4,0,0.6,0.2l1.5,0.9c0.1,0.1,0.3,0.1,0.4,0l1.2-0.6
				c0.2-0.1,0.2-0.3,0.2-0.4c0-0.1,0-0.1,0-0.2l-0.1-2.1c0-0.3-0.2-0.6-0.5-0.8l-2.6-1.7c0,0-0.1-0.1-0.1-0.1
				c-0.2-0.1-0.4-0.2-0.6,0l-4.2,3.4c-0.5,0.4-11.5,9.7-6.7,23.8c5.3,2.1,10.2,2.3,14.5,0.7c0.5-0.2,1.1,0.1,1.3,0.6c0,0,0,0,0,0.1
				l1.4,5l-1.9,0.6l-1.1-3.9c-4.6,1.4-9.8,1-15.4-1.2c-0.3-0.1-0.5-0.3-0.6-0.6C2.6,20,15.3,9.3,15.4,9.2l4.2-3.4
				c0.9-0.7,2.2-0.7,3.1,0l2.6,1.7c0.8,0.5,1.3,1.4,1.4,2.4l0.1,2.1c0.2,1.1-0.3,2.1-1.3,2.6l-1.2,0.6c-0.8,0.4-1.6,0.3-2.3-0.1
				l-1.2-0.8c-1.1,0-2.1,0.3-3.1,0.7c-0.3,0.3-0.6,0.6-0.9,0.9c-0.7,1.2-0.9,2.6-0.5,3.9c0.8,2.1,1.1,4.4,0.8,6.6
				c3-2,6.9-2.2,10.1-0.4c1.8-0.6,8.4-2.6,12.6-2.7c4.2,0.1,10.9,2.1,12.6,2.7c3.2-1.8,7.1-1.7,10.1,0.4c-0.3-2.2,0-4.5,0.8-6.6
				c0.5-1.3,0.3-2.7-0.5-3.9c-0.3-0.4-0.6-0.7-0.9-0.9c-1-0.4-2-0.6-3.1-0.7l-1.2,0.8c-0.7,0.4-1.6,0.5-2.3,0.1l-1.2-0.6
				c-1-0.5-1.5-1.5-1.3-2.6l0.1-2.1c0.1-1,0.6-1.8,1.4-2.4l2.6-1.7c0.9-0.7,2.2-0.7,3.1,0l4.2,3.4C64,9.3,76.8,20,71.1,35.7
				c-0.1,0.3-0.3,0.5-0.6,0.6c-5.6,2.3-10.7,2.7-15.4,1.3L54,41.4L54,41.4z"/>
		</g>
	</g>
</g>
</svg>
