<?xml version="1.0" encoding="utf-8"?>
<!-- Generator: Adobe Illustrator 28.1.0, SVG Export Plug-In . SVG Version: 6.00 Build 0)  -->
<svg version="1.1" id="Layer_1" xmlns="http://www.w3.org/2000/svg" xmlns:xlink="http://www.w3.org/1999/xlink" x="0px" y="0px"
	 viewBox="0 0 80 80" style="enable-background:new 0 0 80 80;" xml:space="preserve">
<style type="text/css">
	.st0{fill:#1D244B;}
	.st1{fill:#47A8BD;}
</style>
<rect id="Rectangle_13030" x="25.4" y="50.4" class="st0" width="1.9" height="18.7"/>
<g id="Group_17177">
	<polygon id="Rectangle_13021" class="st0" points="13.3,67.8 15.3,43.1 17.2,43.3 15.2,67.9 	"/>
	<g id="Group_14857">
		<g>
			<g>
				<g id="Group_14856">
					<path id="Path_49222" class="st0" d="M23.9,17.6c-0.1,0-0.3,0-0.5,0c-1.5-0.1-3-0.8-4-1.9c-1.2-1.5-1.8-3.4-1.5-5.3
						c0.3-4,3-6.6,6.6-6.4c1.5,0.1,3,0.8,4,1.9c1.2,1.5,1.8,3.4,1.5,5.3C29.7,15,27.2,17.6,23.9,17.6 M24,5.9c-2.8,0-4,2.4-4.2,4.6
						c-0.2,1.4,0.2,2.8,1.1,3.9c0.7,0.8,1.7,1.2,2.7,1.2c3,0.2,4.3-2.3,4.5-4.6c0.2-1.4-0.2-2.8-1.1-3.9c-0.7-0.8-1.7-1.2-2.7-1.2
						C24.2,5.9,24.1,5.9,24,5.9"/>
					<path id="Path_49223" class="st0" d="M39.5,58.1l-1.9-0.3l1.9-12.7c0.2-1,0-2-0.5-2.8c-0.5-0.8-1.4-1.4-2.3-1.5l-9-1.8
						c-0.5-0.1-0.8-0.5-0.8-1l1.5-13.5c0.1-1.3-0.8-2.5-2.1-2.7c0,0,0,0-0.1,0l-8.6-0.6c-2.4-0.2-4.6,0.9-6,2.8l-6.2,8.9l-1.7,8.1
						c-0.1,0.3,0,0.6,0.2,0.8c0.2,0.2,0.5,0.4,0.8,0.3c0.4,0,0.8-0.3,0.9-0.7L8,33.4c0-0.1,0.1-0.3,0.2-0.4l6.9-7.5
						c0.4-0.4,1-0.4,1.4-0.1c0.2,0.2,0.4,0.5,0.3,0.9l-1.3,8.5c-0.8,5.5,0,8,6.6,9l12.5,1.9c0.5,0.1,0.9,0.5,0.8,1l-0.9,11.4
						l-1.9-0.2l0.9-10.5l-11.6-1.7c-8-1.2-9.1-5-8.2-11.1l0.8-5.4l-4.6,5l-2.3,7.7c-0.5,1.5-2.1,2.4-3.6,1.9c-1.4-0.4-2.3-1.9-2-3.3
						l1.8-8.3c0-0.1,0.1-0.2,0.2-0.3l6.3-9.1c1.8-2.5,4.7-3.8,7.7-3.6l8.6,0.6c2.4,0.2,4.2,2.3,4,4.6c0,0,0,0.1,0,0.1l-1.4,12.6
						l8.1,1.7c1.5,0.3,2.7,1.2,3.5,2.4c0.8,1.2,1.1,2.8,0.8,4.2L39.5,58.1L39.5,58.1z"/>
					<polygon id="Rectangle_13022" class="st0" points="18.9,67.8 21.6,48.3 23.5,48.6 20.8,68.1 					"/>
					<path id="Path_49224" class="st0" d="M37.7,32.9c-0.1,0-0.2,0-0.3-0.1l-6.2-2.2l0.6-1.8l5.9,2.1l7.2-2.7
						c0.5-0.3,0.7-0.9,0.4-1.4c-0.2-0.4-0.7-0.6-1.2-0.5l-6,1.9c-0.3,0.1-0.6,0-0.8-0.1l-9.5-5.9l1-1.6l9.1,5.6l5.6-1.8
						c1.6-0.5,3.2,0.4,3.7,1.9c0.5,1.4-0.2,2.9-1.6,3.5l-7.5,2.9C38,32.9,37.8,32.9,37.7,32.9"/>
					<rect id="Rectangle_13023" x="57.8" y="20.3" class="st1" width="1.9" height="23.9"/>
					<rect id="Rectangle_13024" x="52" y="34.6" class="st1" width="1.9" height="1.9"/>
					<rect id="Rectangle_13025" x="52" y="29.8" class="st1" width="1.9" height="1.9"/>
					<path id="Path_49225" class="st1" d="M53.9,27H52v-5.7h-2.9c-0.5,0-1-0.4-1-1c0-0.2,0.1-0.5,0.2-0.6l6.8-7.6
						c0.4-0.4,1-0.4,1.4,0c0,0,0,0,0,0l6.8,7.6c0.3,0.4,0.3,1-0.1,1.4c-0.2,0.1-0.4,0.2-0.6,0.2h-5.8v-1.9h3.7l-4.6-5.2l-4.6,5.2
						h1.7c0.5,0,1,0.4,1,1L53.9,27L53.9,27z"/>
					<path id="Path_49226" class="st1" d="M8.5,75.7c-0.5,0-1-0.4-1-1V68c0-0.5,0.4-1,1-1h18.4v-8.6c0-0.5,0.4-1,1-1h18.3v-8.6
						c0-0.5,0.4-1,1-1h26.1V12.6c0-0.5,0.4-1,1-1s1,0.4,1,1v36.3c0,0.5-0.4,1-1,1H48.1v8.6c0,0.5-0.4,1-1,1H28.8V68c0,0.5-0.4,1-1,1
						H9.5v5.7C9.5,75.3,9,75.7,8.5,75.7"/>
					<rect id="Rectangle_13026" x="67.4" y="27" class="st1" width="1.9" height="1.9"/>
					<rect id="Rectangle_13027" x="67.4" y="31.7" class="st1" width="1.9" height="1.9"/>
					<rect id="Rectangle_13028" x="67.4" y="22.2" class="st1" width="1.9" height="1.9"/>
					<path id="Path_49227" class="st1" d="M69.3,19.3h-1.9v-5.7h-2.9c-0.5,0-1-0.4-1-1c0-0.2,0.1-0.5,0.2-0.6l6.8-7.7
						c0.4-0.4,1-0.4,1.4,0c0,0,0,0,0,0l6.8,7.7c0.3,0.4,0.3,1-0.1,1.4c-0.2,0.1-0.4,0.2-0.6,0.2h-5.8v-1.9h3.7l-4.6-5.2l-4.6,5.2
						h1.7c0.5,0,1,0.4,1,1L69.3,19.3L69.3,19.3z"/>
				</g>
			</g>
		</g>
	</g>
</g>
</svg>
