<?xml version="1.0" encoding="utf-8"?>
<!-- Generator: Adobe Illustrator 28.1.0, SVG Export Plug-In . SVG Version: 6.00 Build 0)  -->
<svg version="1.1" id="Layer_1" xmlns="http://www.w3.org/2000/svg" xmlns:xlink="http://www.w3.org/1999/xlink" x="0px" y="0px"
	 viewBox="0 0 95 95" style="enable-background:new 0 0 95 95;" xml:space="preserve">
<style type="text/css">
	.st0{fill:#FFFFFF;}
	.st1{fill:#47A8BD;}
</style>
<g>
	<g>
		<g id="Group_15018">
			<path id="Path_49320" class="st0" d="M70.9,26.2H65v1.9h5.9c1.9,0,3.4,1.5,3.4,3.4v38.9c0,1.9-1.5,3.4-3.4,3.4H24.1
				c-1.9,0-3.4-1.5-3.4-3.4V31.5c0-1.9,1.5-3.4,3.4-3.4H30v-1.9h-5.9c-2.9,0-5.3,2.4-5.3,5.3v38.9c0,2.9,2.4,5.3,5.3,5.3h46.8
				c2.9,0,5.3-2.4,5.3-5.3V31.5C76.2,28.6,73.8,26.2,70.9,26.2"/>
			<rect id="Rectangle_13120" x="35.7" y="26.2" class="st0" width="23.7" height="1.9"/>
			<path id="Path_49321" class="st0" d="M75.2,40.6H19.8c-0.5,0-1-0.4-1-0.9c0-0.5,0.4-1,0.9-1c0,0,0,0,0.1,0h55.5
				c0.5,0,1,0.4,1,0.9C76.3,40.2,75.8,40.6,75.2,40.6C75.3,40.6,75.3,40.6,75.2,40.6"/>
			<path id="Path_49322" class="st0" d="M60.1,54.6c-0.5,0-1-0.4-1-1l0,0v-6.9c0-0.5,0.4-1,1-1H67c0.5,0,1,0.4,1,1s-0.4,1-1,1h-5.9
				v5.9C61.1,54.2,60.7,54.6,60.1,54.6L60.1,54.6"/>
			<path id="Path_49323" class="st0" d="M44.1,54.6c-0.5,0-1-0.4-1-1l0,0v-6.9c0-0.5,0.4-1,1-1h6.9c0.5,0,1,0.4,1,1s-0.4,1-1,1H45
				v5.9C45,54.2,44.6,54.6,44.1,54.6L44.1,54.6"/>
			<path id="Path_49324" class="st0" d="M28,54.6c-0.5,0-1-0.4-1-1l0,0v-6.9c0-0.5,0.4-1,1-1h6.9c0.5,0,1,0.4,1,1s-0.4,1-1,1H29v5.9
				C29,54.2,28.5,54.6,28,54.6L28,54.6"/>
			<path id="Path_49325" class="st0" d="M60.1,68.6c-0.5,0-1-0.4-1-1l0,0v-6.9c0-0.5,0.4-1,1-1H67c0.5,0,1,0.4,1,1s-0.4,1-1,1h-5.9
				v5.9C61.1,68.2,60.7,68.6,60.1,68.6L60.1,68.6"/>
			<path id="Path_49326" class="st0" d="M44.1,68.6c-0.5,0-1-0.4-1-1l0,0v-6.9c0-0.5,0.4-1,1-1h6.9c0.5,0,1,0.4,1,1s-0.4,1-1,1H45
				v5.9C45,68.2,44.6,68.6,44.1,68.6L44.1,68.6"/>
			<path id="Path_49327" class="st0" d="M28,68.6c-0.5,0-1-0.4-1-1l0,0v-6.9c0-0.5,0.4-1,1-1h6.9c0.5,0,1,0.4,1,1s-0.4,1-1,1H29v5.9
				C29,68.2,28.5,68.6,28,68.6L28,68.6"/>
			<path id="Path_49328" class="st1" d="M32.8,35.1c-2.1,0-3.8-1.7-3.8-3.8l0,0v-8.2c0-2.1,1.7-3.8,3.8-3.8c2.1,0,3.8,1.7,3.8,3.8
				v8.2C36.6,33.4,34.9,35.1,32.8,35.1L32.8,35.1 M32.8,21.2c-1,0-1.9,0.8-1.9,1.9v8.2c0,1,0.8,1.9,1.9,1.9c1,0,1.9-0.8,1.9-1.9l0,0
				v-8.2C34.7,22,33.9,21.2,32.8,21.2"/>
			<path id="Path_49329" class="st1" d="M62.2,35.1c-2.1,0-3.8-1.7-3.8-3.8v-8.2c0-2.1,1.7-3.8,3.8-3.8S66,21,66,23.1v8.2
				C66,33.4,64.3,35.1,62.2,35.1 M62.2,21.2c-1,0-1.9,0.8-1.9,1.9v8.2c0,1,0.8,1.9,1.9,1.9s1.9-0.8,1.9-1.9v-8.2
				C64,22,63.2,21.2,62.2,21.2"/>
		</g>
	</g>
</g>
</svg>
