<?xml version="1.0" encoding="utf-8"?>
<!-- Generator: Adobe Illustrator 28.1.0, SVG Export Plug-In . SVG Version: 6.00 Build 0)  -->
<svg version="1.1" id="Layer_1" xmlns="http://www.w3.org/2000/svg" xmlns:xlink="http://www.w3.org/1999/xlink" x="0px" y="0px"
	 viewBox="0 0 80 80" style="enable-background:new 0 0 80 80;" xml:space="preserve">
<style type="text/css">
	.st0{fill:#1D244B;}
	.st1{fill:#47A8BD;}
</style>
<path id="Path_49228" class="st0" d="M18.9,70H17V35.2H16v-1.9h2.8L18.9,70L18.9,70z"/>
<rect id="Rectangle_13030" x="25.4" y="50.4" class="st0" width="1.9" height="18.7"/>
<g id="Group_14860">
	<g>
		<g>
			<g id="Group_14859">
				<path id="Path_49229" class="st0" d="M15.1,50.1h-2.8c-0.5,0-0.9-0.4-0.9-0.9V31.4c0-5.7,3.1-10.2,8-11.7l0.5,1.8
					c-4,1.2-6.6,5.1-6.6,9.9v16.9h1.9L15.1,50.1L15.1,50.1z"/>
				<rect id="Rectangle_13031" x="25.4" y="27.9" class="st0" width="1.9" height="1.9"/>
				<rect id="Rectangle_13032" x="25.4" y="33.5" class="st0" width="1.9" height="1.9"/>
				<rect id="Rectangle_13033" x="25.4" y="39.1" class="st0" width="1.9" height="1.9"/>
				<path id="Path_49230" class="st0" d="M38.5,21.8c-0.5,0-0.9-0.4-0.9-0.9v-3.5c0-1-0.8-1.9-1.9-1.9h-0.9c-0.5,0-0.9-0.4-0.9-0.9
					s0.4-0.9,0.9-0.9h0.9c2.1,0,3.8,1.7,3.8,3.8v3.5C39.5,21.3,39.1,21.8,38.5,21.8"/>
				<path id="Path_49231" class="st0" d="M15.1,21.1h-1.9v-3.8c0-2.1,1.7-3.8,3.8-3.8h0.9v1.9H17c-1,0-1.9,0.8-1.9,1.9L15.1,21.1
					L15.1,21.1z"/>
				<path id="Path_49232" class="st0" d="M17,56.9c-2.1,0-3.8-1.7-3.8-3.8v-0.9h1.9v0.9c0,1,0.8,1.9,1.9,1.9L17,56.9L17,56.9z"/>
				<path id="Path_49233" class="st0" d="M35.7,56.9v-1.9c1,0,1.9-0.8,1.9-1.9V31.6h1.9v21.5C39.5,55.3,37.8,56.9,35.7,56.9"/>
				<path id="Path_49234" class="st0" d="M26.4,25.1c-5.2,0-9.4-4.2-9.4-9.4s4.2-9.4,9.4-9.4s9.4,4.2,9.4,9.4
					C35.8,20.9,31.6,25.1,26.4,25.1 M26.4,8.2c-4.1,0-7.5,3.4-7.5,7.5s3.4,7.5,7.5,7.5s7.5-3.4,7.5-7.5C33.9,11.6,30.5,8.2,26.4,8.2
					"/>
				<path id="Path_49235" class="st0" d="M34.8,16.4c-0.5,0-0.9-0.4-0.9-0.9c0-1.9-3.1-3.2-7.4-3.2S19,13.6,19,15.5
					c0,0.5-0.4,0.9-0.9,0.9s-0.9-0.4-0.9-0.9c0-3.1,3.6-5,9.3-5s9.3,1.9,9.3,5C35.7,16,35.3,16.4,34.8,16.4"/>
				<path id="Path_49236" class="st1" d="M53.5,24.1c-0.5,0-0.9-0.4-0.9-0.9V5.4c0-0.5,0.4-0.9,0.9-0.9s0.9,0.4,0.9,0.9v17.8
					C54.5,23.7,54,24.1,53.5,24.1"/>
				<path id="Path_49237" class="st1" d="M53.5,71.9c-0.5,0-0.9-0.4-0.9-0.9V27.9c0-0.5,0.4-0.9,0.9-0.9s0.9,0.4,0.9,0.9V71
					C54.5,71.5,54,71.9,53.5,71.9"/>
				<path id="Path_49238" class="st1" d="M66.6,18.5H53.5c-0.5,0-0.9-0.4-0.9-0.9V8.2c0-0.5,0.4-0.9,0.9-0.9h13.1
					c0.5,0,0.9,0.4,0.9,0.9v9.4C67.6,18.1,67.2,18.5,66.6,18.5 M54.5,16.6h11.2V9.2H54.5C54.5,9.2,54.5,16.6,54.5,16.6z"/>
				<path id="Path_49239" class="st1" d="M75.1,23.2H61.9c-0.5,0-0.9-0.4-0.9-0.9v-4.7c0-0.5,0.4-0.9,0.9-0.9s0.9,0.4,0.9,0.9v3.8
					h10.2l-2.5-3.2c-0.3-0.3-0.3-0.8,0-1.2l2.5-3.2h-6.5c-0.5,0-0.9-0.4-0.9-0.9s0.4-0.9,0.9-0.9h8.4c0.5,0,0.9,0.4,0.9,0.9
					c0,0.2-0.1,0.4-0.2,0.6l-3.3,4.1l3.3,4.1c0.3,0.4,0.3,1-0.2,1.3C75.5,23.1,75.3,23.2,75.1,23.2"/>
				<path id="Path_49240" class="st0" d="M35.7,69.1h-1.9V28.9L54.5,27v-3l-20.7-2.7l0.2-1.9l20.8,2.7c0.9,0.1,1.5,0.9,1.5,1.7v3.2
					c0,0.9-0.7,1.7-1.6,1.7l-19,1.7L35.7,69.1L35.7,69.1z"/>
				<path id="Path_49241" class="st0" d="M7.5,76.6c-0.5,0-0.9-0.4-0.9-0.9c0-0.3,0.1-0.6,0.4-0.7c8-6.2,18.2-6.8,27.9-6.8
					s19.8,0.5,27.7,6.6c0.4,0.3,0.5,0.9,0.2,1.3s-0.9,0.5-1.3,0.2C53.9,70.5,44.1,70,34.8,70S15.6,70.5,8,76.4
					C7.9,76.5,7.7,76.6,7.5,76.6"/>
			</g>
		</g>
	</g>
</g>
</svg>
