<svg version="1.2" xmlns="http://www.w3.org/2000/svg" viewBox="0 0 127 131" width="127" height="131"><style>.a{fill:#47a8bd}.b{fill:#fff}.c{fill:#f5e663}</style><path class="a" d="m0.4 69.1l61.3 61.3 61.2-61.2-19.8-19.8-10.5 10.5 9.3 9.3-40.3 40.3-40.3-40.3 40.3-40.3 9.3 9.3 10.5-10.5-19.8-19.8z"/><path class="b" d="m28.9 69.7l11-11 11 11-11 11z"/><path class="c" d="m84.8 34.7l11.2-11.2 11.3 11.2-11.3 11.3z"/><path class="c" d="m49.2 55l7.9-7.9 7.8 7.9-7.8 7.8z"/><path class="a" d="m71.7 45.1l3.9-4 4 4-4 3.9z"/><path class="a" d="m59.6 77.6l5.5-5.5 5.5 5.5-5.5 5.5z"/><path class="b" d="m69 66.7l9.7-9.7 9.8 9.7-9.8 9.8z"/><path class="c" d="m54 94.8l7.4-7.4 7.5 7.4-7.5 7.4z"/><path class="b" d="m47.4 82.4l4-3.9 3.9 3.9-3.9 4z"/><path class="a" d="m115.9 38.8l5.5-5.6 5.5 5.6-5.5 5.5z"/><path class="c" d="m112.7 4.1l4-4 3.9 4-4 3.9z"/><path class="b" d="m87 7.9l7.8-7.8 7.8 7.8-7.8 7.8z"/><path class="c" d="m109.7 21.9l4-4 4 4-4 4z"/></svg>