<svg version="1.2" xmlns="http://www.w3.org/2000/svg" viewBox="0 0 163 98" width="163" height="98"><style>.a{fill:#f5e663}</style><path class="a" d="m0.4 85.4c0 3.2 1.8 5 5 5h32.4c3.2 0 5-1.8 5-5v-48.4c0-3.2-1.8-5-5-5h-32.3c-3.2 0-5 1.8-5 5v48.4z"/><path class="a" d="m46.7 53.5c0 3.2 1.8 5 5 5h15.9c3.2 0 5-1.8 5-5v-16.5c0-3.2-1.8-5-5-5h-15.9c-3.2 0-5 1.8-5 5z"/><path class="a" d="m0.4 23.2c0 3.2 1.8 5 5 5h68.8c3.2 0 5-1.8 5-5v-17.8c0-3.2-1.8-5-5-5h-68.7c-3.2 0-5 1.8-5 5v17.8z"/><path class="a" d="m147.3 75.1l5.4 14.4-2.4 6.5 3.7 1.4 8.6-22.3h-4.6l-3.1 9.1h-0.1l-3.1-9.1zm-1.4 3.4v-3.4h-3.9v-3.4h-3.5l-0.6 3.4h-1.8v3.4h1.8v6.4c0 0.9 0.1 1.8 0.3 2.6 0.6 2 2.1 3.3 4.5 3.3 1.2 0 2.6-0.3 3.6-0.9l-1.3-3c-0.5 0.3-1 0.4-1.7 0.4-0.9 0-1.2-0.6-1.3-1.5-0.1-0.4-0.1-0.8-0.1-1.3v-5.9h4zm-12.2-9.1h-4.1v3.5h4.1zm0 5.7h-4.1v15.3h4.1zm-22 0v15.3h4.1v-10.2c0.8-1.2 2.1-1.9 3.3-1.9 0.9 0 1.7 0.3 2 1.1 0.4 0.9 0.5 2.1 0.5 3.3v7.7h4.1v-7.9c0-2.2-0.2-4.2-1.4-5.7-1-1.2-2.4-2-4.1-2-1.7 0-3.5 0.7-4.7 2.4l-0.3-2.1zm-17.4 0l5.4 14.4-2.4 6.5 3.7 1.4 8.6-22.3h-4.5l-3.1 9.1h-0.1l-3.1-9.1zm0.2-6c-1.2-0.6-2.5-0.9-3.8-0.9-2.1 0-3.5 0.5-4.3 1.6-0.8 1-1.1 2.3-1.1 4.1v1.2h-1.7v3.4h1.7v11.8h4.1v-11.8h3.8v-3.4h-3.8v-1c0-0.8 0.1-1.4 0.4-1.9 0.2-0.3 0.6-0.5 1.3-0.5 0.8 0 1.5 0.1 2.1 0.5z"/></svg>